<svg width="4026" height="1379" xmlns="http://www.w3.org/2000/svg" xmlns:xlink="http://www.w3.org/1999/xlink" overflow="hidden"><defs><clipPath id="clip0"><rect x="180" y="650" width="4026" height="1379"/></clipPath></defs><g clip-path="url(#clip0)" transform="translate(-180 -650)"><rect x="1307.5" y="655.5" width="1775" height="129" stroke="#000000" stroke-width="4.58333" stroke-miterlimit="8" fill="none"/><text font-family="Times New Roman,Times New Roman_MSFontService,sans-serif" font-weight="400" font-size="73" transform="matrix(1 0 0 1 1547.06 743)">Data Flow in Training<tspan font-size="73" x="949.615" y="0">Data Flow in Test</tspan></text><path d="M1350.5 716.5 1474.12 716.5" stroke="#000000" stroke-width="55" stroke-miterlimit="8" fill="none" fill-rule="evenodd"/><path d="M2300.5 716.5 2424.12 716.5" stroke="#D62728" stroke-width="55" stroke-miterlimit="8" fill="none" fill-rule="evenodd"/><rect x="1371" y="811" width="1876" height="1180" fill="#9467BD" fill-opacity="0.2"/><text font-family="Times New Roman,Times New Roman_MSFontService,sans-serif" font-weight="400" font-size="83" transform="matrix(1 0 0 1 2063.11 1955)">Task Inference</text><rect x="691" y="811" width="694" height="1179" fill="#E2F0D9" fill-opacity="0.94902"/><text font-family="Times New Roman,Times New Roman_MSFontService,sans-serif" font-weight="400" font-size="83" transform="matrix(1 0 0 1 725.039 1955)">Context Collection</text><rect x="3247" y="811" width="959" height="1180" fill="#EDEDED"/><text font-family="Times New Roman,Times New Roman_MSFontService,sans-serif" font-weight="400" font-size="83" transform="matrix(1 0 0 1 3386.28 1955)">MARL Performance</text><rect x="194" y="811" width="501" height="1184" fill="#DEEBF7"/><text font-family="Times New Roman,Times New Roman_MSFontService,sans-serif" font-weight="400" font-size="83" transform="matrix(1 0 0 1 230.222 1960)">Task Sample</text><path d="M1402 920.429C1402 874.905 1438.9 838 1484.43 838L2323.57 838C2369.1 838 2406 874.905 2406 920.429L2406 1773.57C2406 1819.1 2369.1 1856 2323.57 1856L1484.43 1856C1438.9 1856 1402 1819.1 1402 1773.57Z" fill="#FFF2CC" fill-rule="evenodd"/><text font-family="Times New Roman,Times New Roman_MSFontService,sans-serif" font-weight="400" font-size="73" transform="matrix(1 0 0 1 1514.24 1815)">Multi<tspan font-size="73" x="163.854" y="0">-</tspan><tspan font-size="73" x="188.49" y="0">Level Task Encoder</tspan></text><path d="M2377.5 1587.06 2467.82 1587.06 2467.82 1593.94 2377.5 1593.94ZM2463.23 1576.75 2490.73 1590.5 2463.23 1604.25Z" fill="#C00000"/><path d="M618.51 1739.06 806.667 1739.64 806.646 1746.51 618.489 1745.94ZM802.115 1729.31 829.573 1743.15 802.031 1756.81Z" fill="#D62728"/><path d="M261.5 1634.5 618.5 1634.5 618.5 1808.52C440 1808.52 440 1874.83 261.5 1837.15Z" stroke="#000000" stroke-width="6.875" stroke-linejoin="round" stroke-miterlimit="10" fill="#D9D9D9" fill-rule="evenodd"/><text font-family="Times New Roman,Times New Roman_MSFontService,sans-serif" font-weight="400" font-size="73" transform="matrix(1 0 0 1 376.13 1712)">Test <tspan font-size="73" x="-8.02084" y="88">Task</tspan></text><path d="M239.5 1248.5 605.5 1248.5 605.5 1423.32C422.5 1423.32 422.5 1489.93 239.5 1452.09Z" stroke="#000000" stroke-width="6.875" stroke-linejoin="round" stroke-miterlimit="10" stroke-opacity="0.4" fill="#D9D9D9" fill-rule="evenodd" fill-opacity="0.4"/><path d="M258.5 1264.5 623.5 1264.5 623.5 1439.32C441 1439.32 441 1505.94 258.5 1468.09Z" stroke="#000000" stroke-width="6.875" stroke-linejoin="round" stroke-miterlimit="10" stroke-opacity="0.701961" fill="#D9D9D9" fill-rule="evenodd" fill-opacity="0.968627"/><path d="M278.5 1282.5 639.5 1282.5 639.5 1457.32C459 1457.32 459 1523.93 278.5 1486.09Z" stroke="#000000" stroke-width="6.875" stroke-linejoin="round" stroke-miterlimit="10" fill="#D9D9D9" fill-rule="evenodd"/><text font-family="Times New Roman,Times New Roman_MSFontService,sans-serif" font-weight="400" font-size="73" transform="matrix(1 0 0 1 386.866 1360)">Task <tspan font-size="73" x="0.87085" y="88">Dist.</tspan></text><path d="M257.5 879.5 618.5 879.5 618.5 1067.96C438 1067.96 438 1139.76 257.5 1098.96Z" stroke="#000000" stroke-width="6.875" stroke-linejoin="round" stroke-miterlimit="10" fill="#D9D9D9" fill-rule="evenodd"/><text font-family="Times New Roman,Times New Roman_MSFontService,sans-serif" font-weight="400" font-size="73" transform="matrix(1 0 0 1 310.554 964)">Training <tspan font-size="73" x="40.9521" y="88">Tasks</tspan></text><path d="M0-3.4375 276.006-3.4375 276.006 124.585 269.131 124.585 269.131 0 272.568 3.4375 0 3.4375ZM286.318 120.002 272.568 147.502 258.818 120.002Z" fill="#D62728" transform="matrix(1 0 0 -1 939.5 1744)"/><path d="M939.5 993.063 1215.06 993.063 1215.06 1144.02 1208.18 1144.02 1208.18 996.5 1211.62 999.938 939.5 999.938ZM1225.37 1139.44 1211.62 1166.94 1197.87 1139.44Z"/><path d="M0.00398489-3.4375 188.161-3.21938 188.153 3.65562-0.00398489 3.4375ZM183.589-13.5372 211.073 0.244685 183.557 13.9628Z" transform="matrix(1 0 0 -1 618.5 996.745)"/><path d="M887.937 1502.49 888.261 1665.72 881.386 1665.73 881.062 1502.51ZM898.564 1661.11 884.869 1688.64 871.064 1661.17Z" fill="#D62728"/><path d="M747.5 1281.67C747.5 1257.27 767.275 1237.5 791.668 1237.5L976.333 1237.5C1000.73 1237.5 1020.5 1257.27 1020.5 1281.67L1020.5 1458.33C1020.5 1482.73 1000.73 1502.5 976.333 1502.5L791.668 1502.5C767.275 1502.5 747.5 1482.73 747.5 1458.33Z" stroke="#000000" stroke-width="6.875" stroke-miterlimit="8" fill="#9DC3E6" fill-rule="evenodd"/><text font-family="Times New Roman,Times New Roman_MSFontService,sans-serif" font-weight="400" font-size="73" transform="matrix(1 0 0 1 809.922 1353)">Prior <tspan font-size="73" x="-20.3271" y="88">Policy</tspan></text><path d="M3.43749-0.00681134 3.76092 163.216-3.11407 163.229-3.43749 0.00681134ZM14.0643 158.612 0.368832 186.139-13.4356 158.667Z" transform="matrix(1 0 0 -1 884.5 1237.64)"/><path d="M1339.5 1387.06 1491.35 1387.06 1491.35 1393.94 1339.5 1393.94ZM1486.76 1376.75 1514.26 1390.5 1486.76 1404.25Z" fill="#C00000"/><path d="M1339.5 1260.06 1497.01 1260.06 1497.01 1266.94 1339.5 1266.94ZM1492.43 1249.75 1519.93 1263.5 1492.43 1277.25Z"/><text font-family="Times New Roman,Times New Roman_MSFontService,sans-serif" font-weight="400" font-size="73" transform="matrix(1 0 0 1 2582.27 1784)">Local Inference</text><path d="M2488.5 1066.5C2488.5 990.285 2606.92 928.5 2753 928.5 2899.08 928.5 3017.5 990.285 3017.5 1066.5 3017.5 1142.72 2899.08 1204.5 2753 1204.5 2606.92 1204.5 2488.5 1142.72 2488.5 1066.5Z" stroke="#000000" stroke-width="6.875" stroke-miterlimit="8" stroke-dasharray="20.625 6.875" fill="none" fill-rule="evenodd"/><path d="M2617 1085C2668.23 1053.81 2669.33 951 2695.5 951 2721.67 951 2721.16 1053.04 2774 1085L2617 1085Z" fill="#ED7D31" fill-rule="evenodd"/><path d="M2769 1102C2812.07 1069.41 2813 962 2835 962 2857 962 2856.58 1068.61 2901 1102L2769 1102Z" fill="#C55A11" fill-rule="evenodd"/><path d="M2576 1157C2683.02 1133.49 2685.33 1056 2740 1056 2794.67 1056 2793.62 1132.91 2904 1157L2576 1157Z" fill="#FFC000" fill-rule="evenodd"/><text font-family="Times New Roman,Times New Roman_MSFontService,sans-serif" font-weight="400" font-size="73" transform="matrix(1 0 0 1 2535.72 902)">Global Inference</text><path d="M1082.5 1389.5C1082.5 1407.17 1140.48 1421.5 1212 1421.5 1283.52 1421.5 1341.5 1407.17 1341.5 1389.5L1341.5 1453.5C1341.5 1471.17 1283.52 1485.5 1212 1485.5 1140.48 1485.5 1082.5 1471.17 1082.5 1453.5Z" fill="#DAE3F3" fill-rule="evenodd"/><path d="M1082.5 1389.5C1082.5 1371.83 1140.48 1357.5 1212 1357.5 1283.52 1357.5 1341.5 1371.83 1341.5 1389.5 1341.5 1407.17 1283.52 1421.5 1212 1421.5 1140.48 1421.5 1082.5 1407.17 1082.5 1389.5Z" fill="#E9EEF8" fill-rule="evenodd"/><path d="M1341.5 1389.5C1341.5 1407.17 1283.52 1421.5 1212 1421.5 1140.48 1421.5 1082.5 1407.17 1082.5 1389.5 1082.5 1371.83 1140.48 1357.5 1212 1357.5 1283.52 1357.5 1341.5 1371.83 1341.5 1389.5L1341.5 1453.5C1341.5 1471.17 1283.52 1485.5 1212 1485.5 1140.48 1485.5 1082.5 1471.17 1082.5 1453.5L1082.5 1389.5" stroke="#000000" stroke-width="6.875" stroke-miterlimit="8" fill="none" fill-rule="evenodd"/><path d="M1082.5 1327.75C1082.5 1345.56 1140.48 1360 1212 1360 1283.52 1360 1341.5 1345.56 1341.5 1327.75L1341.5 1392.25C1341.5 1410.06 1283.52 1424.5 1212 1424.5 1140.48 1424.5 1082.5 1410.06 1082.5 1392.25Z" fill="#B4C7E7" fill-rule="evenodd"/><path d="M1082.5 1327.75C1082.5 1309.94 1140.48 1295.5 1212 1295.5 1283.52 1295.5 1341.5 1309.94 1341.5 1327.75 1341.5 1345.56 1283.52 1360 1212 1360 1140.48 1360 1082.5 1345.56 1082.5 1327.75Z" fill="#D2DDF1" fill-rule="evenodd"/><path d="M1341.5 1327.75C1341.5 1345.56 1283.52 1360 1212 1360 1140.48 1360 1082.5 1345.56 1082.5 1327.75 1082.5 1309.94 1140.48 1295.5 1212 1295.5 1283.52 1295.5 1341.5 1309.94 1341.5 1327.75L1341.5 1392.25C1341.5 1410.06 1283.52 1424.5 1212 1424.5 1140.48 1424.5 1082.5 1410.06 1082.5 1392.25L1082.5 1327.75" stroke="#000000" stroke-width="6.875" stroke-miterlimit="8" fill="none" fill-rule="evenodd"/><path d="M1082.5 1263.75C1082.5 1281.56 1140.48 1296 1212 1296 1283.52 1296 1341.5 1281.56 1341.5 1263.75L1341.5 1328.25C1341.5 1346.06 1283.52 1360.5 1212 1360.5 1140.48 1360.5 1082.5 1346.06 1082.5 1328.25Z" fill="#8FAADC" fill-rule="evenodd"/><path d="M1082.5 1263.75C1082.5 1245.94 1140.48 1231.5 1212 1231.5 1283.52 1231.5 1341.5 1245.94 1341.5 1263.75 1341.5 1281.56 1283.52 1296 1212 1296 1140.48 1296 1082.5 1281.56 1082.5 1263.75Z" fill="#BCCCEA" fill-rule="evenodd"/><path d="M1341.5 1263.75C1341.5 1281.56 1283.52 1296 1212 1296 1140.48 1296 1082.5 1281.56 1082.5 1263.75 1082.5 1245.94 1140.48 1231.5 1212 1231.5 1283.52 1231.5 1341.5 1245.94 1341.5 1263.75L1341.5 1328.25C1341.5 1346.06 1283.52 1360.5 1212 1360.5 1140.48 1360.5 1082.5 1346.06 1082.5 1328.25L1082.5 1263.75" stroke="#000000" stroke-width="6.875" stroke-miterlimit="8" fill="none" fill-rule="evenodd"/><path d="M1082.5 1198.75C1082.5 1216.56 1140.48 1231 1212 1231 1283.52 1231 1341.5 1216.56 1341.5 1198.75L1341.5 1263.25C1341.5 1281.06 1283.52 1295.5 1212 1295.5 1140.48 1295.5 1082.5 1281.06 1082.5 1263.25Z" fill="#2F5597" fill-rule="evenodd"/><path d="M1082.5 1198.75C1082.5 1180.94 1140.48 1166.5 1212 1166.5 1283.52 1166.5 1341.5 1180.94 1341.5 1198.75 1341.5 1216.56 1283.52 1231 1212 1231 1140.48 1231 1082.5 1216.56 1082.5 1198.75Z" fill="#8299C1" fill-rule="evenodd"/><path d="M1341.5 1198.75C1341.5 1216.56 1283.52 1231 1212 1231 1140.48 1231 1082.5 1216.56 1082.5 1198.75 1082.5 1180.94 1140.48 1166.5 1212 1166.5 1283.52 1166.5 1341.5 1180.94 1341.5 1198.75L1341.5 1263.25C1341.5 1281.06 1283.52 1295.5 1212 1295.5 1140.48 1295.5 1082.5 1281.06 1082.5 1263.25L1082.5 1198.75" stroke="#000000" stroke-width="6.875" stroke-miterlimit="8" fill="none" fill-rule="evenodd"/><text font-family="Times New Roman,Times New Roman_MSFontService,sans-serif" font-weight="400" font-size="73" transform="matrix(1 0 0 1 1094.33 1561)">Context</text><path d="M370.5 1569 395.25 1569 395.25 1516.5 444.75 1516.5 444.75 1569 469.5 1569 420 1618.5Z" stroke="#000000" stroke-width="6.875" stroke-miterlimit="8" fill="none" fill-rule="evenodd"/><path d="M470.5 1180.5 445.5 1180.5 445.5 1232.5 395.5 1232.5 395.5 1180.5 370.5 1180.5 420.5 1130.5Z" stroke="#000000" stroke-width="6.875" stroke-miterlimit="8" fill="none" fill-rule="evenodd"/><path d="M2365.5 1065.06 2467.66 1065.06 2467.66 1071.94 2365.5 1071.94ZM2463.08 1054.75 2490.58 1068.5 2463.08 1082.25Z"/><path d="M2377.5 1529.06 2467.82 1529.06 2467.82 1535.94 2377.5 1535.94ZM2463.23 1518.75 2490.73 1532.5 2463.23 1546.25Z"/><path d="M3266 1034.34C3266 980.579 3309.58 937 3363.34 937L3752.66 937C3806.42 937 3850 980.579 3850 1034.34L3850 1586.66C3850 1640.42 3806.42 1684 3752.66 1684L3363.34 1684C3309.58 1684 3266 1640.42 3266 1586.66Z" fill="#BDD7EE" fill-rule="evenodd"/><text font-family="Times New Roman,Times New Roman_MSFontService,sans-serif" font-weight="400" font-size="73" transform="matrix(1 0 0 1 3374.13 1293)">Multi<tspan font-size="73" x="163.854" y="0">-</tspan><tspan font-size="73" x="188.49" y="0">Agent</tspan><tspan font-size="73" x="75.625" y="88">System</tspan></text><path d="M3885.5 1138.5 3936.3 991.5 4139.5 991.5 4088.7 1138.5Z" stroke="#000000" stroke-width="6.875" stroke-miterlimit="8" fill="#A9D18E" fill-rule="evenodd"/><path d="M3990.46 1029.5C3992.52 1029.5 3994.33 1030.08 3995.87 1031.24 3997.42 1032.41 3998.78 1034.13 3999.97 1036.41L3994.48 1038.8C3993.34 1036.47 3992.36 1034.86 3991.52 1033.97 3990.69 1033.08 3989.66 1032.63 3988.42 1032.63 3987.76 1032.63 3987.14 1032.75 3986.57 1032.99 3986 1033.23 3985.48 1033.7 3985 1034.4 3984.53 1035.1 3984.12 1036.03 3983.79 1037.2 3983.46 1038.36 3983.01 1040.3 3982.44 1043.01L3979.94 1054.81C3979.56 1056.59 3979.13 1058.16 3978.66 1059.51 3978.18 1060.87 3977.63 1062.15 3977 1063.36 3976.37 1064.57 3975.7 1065.65 3975 1066.59 3974.3 1067.52 3973.5 1068.47 3972.6 1069.42L3972.6 1069.78C3974.09 1069.78 3975.57 1069.94 3977.04 1070.28 3978.5 1070.61 3979.94 1071.04 3981.37 1071.56 3982.82 1072.1 3984.2 1072.54 3985.52 1072.86 3986.84 1073.18 3988.14 1073.34 3989.42 1073.34 3990.82 1073.34 3992.01 1073.15 3992.99 1072.77 3993.96 1072.39 3994.92 1071.74 3995.86 1070.81 3996.79 1069.88 3998.05 1068.22 3999.62 1065.82L4002.33 1067.6C3999.45 1072.05 3996.98 1075.11 3994.93 1076.78 3992.87 1078.46 3990.8 1079.29 3988.71 1079.29 3986.93 1079.29 3985.25 1079.1 3983.67 1078.72 3982.08 1078.34 3980.53 1077.83 3979.01 1077.19 3977.3 1076.5 3975.82 1075.98 3974.58 1075.64 3973.33 1075.3 3972.05 1075.12 3970.74 1075.12 3969.32 1075.12 3967.96 1075.39 3966.66 1075.92 3965.37 1076.46 3963.52 1077.58 3961.12 1079.29L3959.23 1076.94C3962.2 1074.26 3964.71 1072.43 3966.75 1071.45 3969.39 1068.93 3971.3 1064.94 3972.49 1059.47L3975.91 1043.72C3976.53 1040.87 3977.28 1038.58 3978.16 1036.84 3979.04 1035.11 3980.08 1033.76 3981.29 1032.8 3982.51 1031.83 3983.85 1031.04 3985.32 1030.42 3986.8 1029.81 3988.51 1029.5 3990.46 1029.5Z" fill-rule="evenodd"/><text fill="#000000" fill-opacity="0" font-family="Arial,Arial_MSFontService,sans-serif" font-size="49.7954" x="3959.23" y="1073.07">â„’</text><path d="M4026.51 1062.27C4024.96 1062.27 4023.56 1062.63 4022.31 1063.36 4021.06 1064.08 4019.95 1065.05 4018.98 1066.26 4018.02 1067.46 4017.18 1068.84 4016.49 1070.38 4015.79 1071.93 4015.21 1073.51 4014.75 1075.12 4014.29 1076.73 4013.96 1078.32 4013.76 1079.87 4013.55 1081.42 4013.45 1082.83 4013.45 1084.09 4013.45 1086.59 4013.94 1088.46 4014.93 1089.69 4015.93 1090.92 4017.44 1091.54 4019.48 1091.54 4020.92 1091.54 4022.25 1091.2 4023.46 1090.52 4024.67 1089.84 4025.76 1088.92 4026.72 1087.77 4027.69 1086.63 4028.53 1085.31 4029.26 1083.81 4029.98 1082.32 4030.59 1080.77 4031.07 1079.16 4031.55 1077.54 4031.92 1075.93 4032.17 1074.3 4032.42 1072.68 4032.54 1071.18 4032.54 1069.8 4032.54 1067.35 4032.04 1065.48 4031.04 1064.2 4030.04 1062.91 4028.53 1062.27 4026.51 1062.27ZM4026.67 1059.63C4028.5 1059.63 4030.11 1059.9 4031.51 1060.45 4032.91 1060.99 4034.07 1061.75 4035 1062.74 4035.93 1063.72 4036.64 1064.91 4037.11 1066.29 4037.59 1067.68 4037.82 1069.24 4037.82 1070.97 4037.82 1072.19 4037.72 1073.55 4037.5 1075.03 4037.28 1076.51 4036.93 1078.03 4036.45 1079.58 4035.97 1081.14 4035.35 1082.67 4034.59 1084.19 4033.83 1085.71 4032.91 1087.11 4031.85 1088.38 4030.78 1089.66 4029.53 1090.77 4028.12 1091.72 4026.7 1092.67 4025.11 1093.36 4023.33 1093.79 4023.81 1095.09 4024.25 1096.12 4024.65 1096.91 4025.05 1097.69 4025.44 1098.3 4025.82 1098.72 4026.2 1099.14 4026.6 1099.42 4027.02 1099.55 4027.44 1099.68 4027.92 1099.74 4028.46 1099.74 4028.77 1099.74 4029.08 1099.7 4029.41 1099.61 4029.74 1099.53 4030.08 1099.39 4030.43 1099.19 4030.79 1098.99 4031.17 1098.73 4031.59 1098.4 4032 1098.07 4032.44 1097.66 4032.91 1097.18L4034.48 1099.02C4033.73 1099.74 4033.01 1100.37 4032.32 1100.89 4031.64 1101.42 4030.98 1101.85 4030.33 1102.19 4029.68 1102.53 4029.04 1102.77 4028.4 1102.93 4027.76 1103.08 4027.12 1103.16 4026.46 1103.16 4025.41 1103.16 4024.49 1103.02 4023.69 1102.73 4022.9 1102.45 4022.19 1101.96 4021.56 1101.26 4020.93 1100.56 4020.35 1099.64 4019.81 1098.49 4019.28 1097.34 4018.73 1095.9 4018.18 1094.18 4016.61 1094.08 4015.21 1093.75 4013.96 1093.21 4012.72 1092.67 4011.66 1091.91 4010.79 1090.96 4009.92 1090 4009.25 1088.85 4008.79 1087.5 4008.32 1086.16 4008.09 1084.63 4008.09 1082.92 4008.09 1081.42 4008.24 1079.81 4008.53 1078.08 4008.82 1076.36 4009.28 1074.63 4009.9 1072.91 4010.52 1071.18 4011.32 1069.52 4012.31 1067.93 4013.29 1066.33 4014.47 1064.92 4015.85 1063.69 4017.23 1062.47 4018.82 1061.49 4020.61 1060.74 4022.41 1060 4024.43 1059.63 4026.67 1059.63Z" fill-rule="evenodd"/><text fill="#000000" fill-opacity="0" font-family="Arial,Arial_MSFontService,sans-serif" font-size="43.5283" x="4008.09" y="1097.72">ğ‘„</text><path d="M3886.5 1593.5 3936.9 1455.5 4138.5 1455.5 4088.1 1593.5Z" stroke="#000000" stroke-width="6.875" stroke-miterlimit="8" fill="#A9D18E" fill-rule="evenodd"/><path d="M3365.5 1005.5C3365.5 988.379 3379.38 974.5 3396.5 974.5L3718.5 974.5C3735.62 974.5 3749.5 988.379 3749.5 1005.5L3749.5 1129.5C3749.5 1146.62 3735.62 1160.5 3718.5 1160.5L3396.5 1160.5C3379.38 1160.5 3365.5 1146.62 3365.5 1129.5Z" stroke="#000000" stroke-width="6.875" stroke-miterlimit="8" fill="#9DC3E6" fill-rule="evenodd"/><path d="M3442.68 1045.86C3440.11 1045.86 3437.72 1046.78 3435.49 1048.61 3433.27 1050.44 3431.32 1053.05 3429.65 1056.45 3427.97 1059.85 3426.67 1063.58 3425.74 1067.64 3424.82 1071.71 3424.35 1075.29 3424.35 1078.41 3424.35 1085.75 3427.03 1089.42 3432.37 1089.42 3435.68 1089.42 3438.71 1087.88 3441.46 1084.8 3444.22 1081.73 3446.44 1077.47 3448.13 1072.03 3449.82 1066.58 3450.66 1061.5 3450.66 1056.77 3450.66 1053.23 3450.01 1050.53 3448.7 1048.66 3447.39 1046.8 3445.39 1045.86 3442.68 1045.86ZM3443.07 1042.73C3447.65 1042.73 3451.19 1044.06 3453.67 1046.72 3456.16 1049.38 3457.4 1053.23 3457.4 1058.27 3457.4 1061.59 3456.87 1065.31 3455.83 1069.42 3454.78 1073.54 3453.35 1077.17 3451.52 1080.31 3449.69 1083.46 3447.57 1086 3445.15 1087.92 3442.74 1089.85 3440.12 1091.18 3437.29 1091.92 3437.84 1093.65 3438.35 1095.08 3438.83 1096.21 3439.3 1097.34 3439.76 1098.25 3440.2 1098.96 3440.64 1099.66 3441.07 1100.18 3441.5 1100.52 3441.93 1100.87 3442.36 1101.1 3442.78 1101.22 3443.21 1101.34 3443.71 1101.4 3444.28 1101.4 3445.18 1101.4 3446.1 1101.14 3447.02 1100.61 3447.95 1100.09 3448.99 1099.19 3450.13 1097.9L3451.98 1099.9C3450.08 1101.97 3448.31 1103.43 3446.67 1104.28 3445.03 1105.14 3443.34 1105.57 3441.61 1105.57 3439.63 1105.57 3438.02 1105.13 3436.78 1104.25 3435.53 1103.37 3434.45 1101.97 3433.53 1100.04 3432.62 1098.12 3431.73 1095.6 3430.88 1092.49 3426.58 1092.25 3423.3 1090.82 3421.04 1088.21 3418.78 1085.59 3417.65 1081.91 3417.65 1077.16 3417.65 1073.59 3418.25 1069.57 3419.45 1065.08 3420.65 1060.58 3422.39 1056.62 3424.66 1053.19 3426.93 1049.75 3429.64 1047.15 3432.78 1045.38 3435.93 1043.61 3439.36 1042.73 3443.07 1042.73Z" fill-rule="evenodd"/><text fill="#000000" fill-opacity="0" font-family="Arial,Arial_MSFontService,sans-serif" font-size="62.8413" x="3417.65" y="1097.71">ğ‘„</text><path d="M3685.78 1037.28C3692.72 1039.11 3698.05 1043.06 3701.77 1049.13 3705.49 1055.21 3707.35 1062.53 3707.35 1071.11 3707.35 1079.71 3705.49 1087.04 3701.79 1093.08 3698.08 1099.13 3692.74 1103.07 3685.78 1104.9L3684.93 1102.16C3690.42 1100.33 3694.5 1096.71 3697.17 1091.32 3699.84 1085.93 3701.18 1079.07 3701.18 1070.75 3701.18 1062.72 3699.85 1056.05 3697.19 1050.74 3694.53 1045.43 3690.4 1041.86 3684.82 1040.03ZM3492.82 1037.28 3493.78 1040.03C3488.22 1041.86 3484.11 1045.43 3481.43 1050.74 3478.76 1056.05 3477.42 1062.72 3477.42 1070.75 3477.42 1079.07 3478.76 1085.93 3481.43 1091.32 3484.11 1096.71 3488.19 1100.33 3493.68 1102.16L3492.82 1104.9C3485.86 1103.07 3480.52 1099.13 3476.82 1093.08 3473.11 1087.04 3471.26 1079.71 3471.26 1071.11 3471.26 1062.53 3473.12 1055.21 3476.83 1049.13 3480.55 1043.06 3485.88 1039.11 3492.82 1037.28Z" fill-rule="evenodd"/><path d="M3515.16 1057.31C3517.37 1057.31 3519.39 1057.44 3521.2 1057.7 3523.02 1057.96 3524.83 1058.41 3526.64 1059.05L3525.04 1066.54 3522.15 1066.54C3521.89 1064.42 3521.19 1062.82 3520.06 1061.72 3518.94 1060.63 3517.16 1060.09 3514.73 1060.09 3512.86 1060.09 3511.34 1060.57 3510.17 1061.53 3509.01 1062.49 3508.43 1063.76 3508.43 1065.33 3508.43 1066.18 3508.57 1066.94 3508.87 1067.59 3509.17 1068.24 3509.77 1068.96 3510.67 1069.74 3511.57 1070.53 3512.98 1071.49 3514.88 1072.63 3516.37 1073.54 3517.57 1074.36 3518.48 1075.11 3519.38 1075.86 3520.09 1076.6 3520.62 1077.34 3521.14 1078.07 3521.52 1078.85 3521.76 1079.67 3521.99 1080.49 3522.11 1081.48 3522.11 1082.65 3522.11 1084.76 3521.55 1086.58 3520.42 1088.08 3519.29 1089.59 3517.76 1090.72 3515.82 1091.45 3513.89 1092.19 3511.68 1092.56 3509.21 1092.56 3507.24 1092.56 3505.3 1092.41 3503.4 1092.11 3501.5 1091.81 3499.38 1091.31 3497.06 1090.6L3498.77 1082.83 3501.55 1082.83C3501.64 1085.11 3502.28 1086.83 3503.47 1087.99 3504.66 1089.16 3506.55 1089.74 3509.14 1089.74 3511.4 1089.74 3513.16 1089.24 3514.43 1088.23 3515.7 1087.22 3516.34 1085.79 3516.34 1083.93 3516.34 1082.86 3516.16 1081.94 3515.8 1081.17 3515.45 1080.4 3514.87 1079.65 3514.06 1078.94 3513.25 1078.23 3511.97 1077.34 3510.21 1076.27 3508.35 1075.15 3506.91 1074.14 3505.88 1073.24 3504.84 1072.34 3504.07 1071.35 3503.54 1070.3 3503.02 1069.24 3502.76 1068.02 3502.76 1066.64 3502.76 1064.77 3503.26 1063.12 3504.27 1061.71 3505.28 1060.29 3506.73 1059.21 3508.6 1058.45 3510.48 1057.69 3512.67 1057.31 3515.16 1057.31Z" fill-rule="evenodd"/><text fill="#000000" fill-opacity="0" font-family="Arial,Arial_MSFontService,sans-serif" font-size="35.2524" x="3497.06" y="1088.15">ğ‘ </text><path d="M3535.36 1083.68 3541.6 1083.68C3541.93 1085.35 3542.1 1086.99 3542.1 1088.6 3542.1 1090.26 3541.82 1091.79 3541.25 1093.16 3540.67 1094.54 3539.77 1095.91 3538.52 1097.28 3537.27 1098.65 3535.55 1100.15 3533.37 1101.79L3531.44 1099.62C3532.65 1098.47 3533.53 1097.45 3534.08 1096.53 3534.63 1095.62 3535.02 1094.58 3535.26 1093.41 3535.49 1092.25 3535.61 1090.79 3535.61 1089.03 3535.61 1087.22 3535.53 1085.44 3535.36 1083.68Z" fill-rule="evenodd"/><text fill="#000000" fill-opacity="0" font-family="Arial,Arial_MSFontService,sans-serif" font-size="18.1074" x="3531.44" y="1099.53">,</text><path d="M3582.72 1059.73C3580.51 1059.73 3578.55 1060.84 3576.84 1063.06 3575.13 1065.28 3573.75 1068.27 3572.7 1072.03 3571.66 1075.78 3571.14 1079.14 3571.14 1082.11 3571.14 1083.85 3571.39 1085.14 3571.9 1086 3572.41 1086.85 3573.2 1087.28 3574.27 1087.28 3575.84 1087.28 3577.44 1086.52 3579.07 1084.98 3580.69 1083.45 3582.01 1081.65 3583.01 1079.58 3584 1077.52 3584.89 1074.69 3585.68 1071.1L3585.96 1069.78C3586.34 1068.02 3586.53 1066.26 3586.53 1064.51 3586.53 1062.94 3586.24 1061.75 3585.64 1060.94 3585.05 1060.13 3584.07 1059.73 3582.72 1059.73ZM3582.29 1056.02C3585.83 1056.02 3588.85 1056.88 3591.35 1058.59L3594.8 1056.02 3598.8 1056.59 3593.02 1080.83C3592.67 1082.33 3592.49 1083.68 3592.49 1084.89 3592.49 1085.68 3592.62 1086.28 3592.88 1086.71 3593.14 1087.14 3593.59 1087.35 3594.23 1087.35 3594.97 1087.35 3595.77 1087.02 3596.62 1086.36 3597.48 1085.69 3598.48 1084.7 3599.62 1083.4L3602.18 1085.96C3599.69 1088.46 3597.54 1090.18 3595.73 1091.11 3593.92 1092.05 3592.02 1092.52 3590.03 1092.52 3588.03 1092.52 3586.45 1091.97 3585.29 1090.86 3584.12 1089.76 3583.54 1088.3 3583.54 1086.5 3583.54 1085.9 3583.61 1085.33 3583.75 1084.79L3583.26 1084.72C3581.52 1086.76 3580.03 1088.3 3578.78 1089.33 3577.53 1090.37 3576.21 1091.16 3574.81 1091.7 3573.41 1092.25 3571.85 1092.52 3570.14 1092.52 3567.29 1092.52 3565.12 1091.55 3563.65 1089.62 3562.18 1087.68 3561.44 1084.86 3561.44 1081.15 3561.44 1077.94 3561.9 1074.76 3562.83 1071.6 3563.76 1068.44 3565.09 1065.71 3566.82 1063.42 3568.56 1061.12 3570.74 1059.32 3573.36 1058 3575.99 1056.68 3578.97 1056.02 3582.29 1056.02Z" fill-rule="evenodd"/><text fill="#000000" fill-opacity="0" font-family="Arial,Arial_MSFontService,sans-serif" font-size="36.5" x="3561.44" y="1087.96">ğ’‚</text><path d="M3608.31 1083.68 3614.55 1083.68C3614.88 1085.35 3615.04 1086.99 3615.04 1088.6 3615.04 1090.26 3614.76 1091.79 3614.19 1093.16 3613.62 1094.54 3612.71 1095.91 3611.46 1097.28 3610.21 1098.65 3608.5 1100.15 3606.31 1101.79L3604.39 1099.62C3605.6 1098.47 3606.48 1097.45 3607.02 1096.53 3607.57 1095.62 3607.96 1094.58 3608.2 1093.41 3608.44 1092.25 3608.56 1090.79 3608.56 1089.03 3608.56 1087.22 3608.47 1085.44 3608.31 1083.68Z" fill-rule="evenodd"/><text fill="#000000" fill-opacity="0" font-family="Arial,Arial_MSFontService,sans-serif" font-size="18.1074" x="3604.39" y="1099.53">,</text><path d="M3639.02 1057.88 3664.36 1057.88 3665.04 1059.66 3648.04 1079.19C3644.73 1082.97 3641.87 1086.18 3639.45 1088.81L3639.66 1089.06 3647.72 1089.06C3649.14 1089.06 3650.23 1088.99 3650.99 1088.83 3651.76 1088.68 3652.42 1088.39 3652.99 1087.96 3653.56 1087.53 3654.15 1086.88 3654.76 1086.02 3655.36 1085.15 3656.12 1083.79 3657.02 1081.94L3660.19 1081.94 3658.02 1091.95 3632.21 1091.95 3631.53 1090.2 3651.03 1067.75C3653.79 1064.59 3655.81 1062.34 3657.09 1061.01L3656.88 1060.76 3648.54 1060.76C3647.3 1060.76 3646.4 1060.85 3645.83 1061.01 3645.26 1061.18 3644.69 1061.47 3644.12 1061.89 3643.54 1062.3 3642.93 1062.92 3642.28 1063.74 3641.63 1064.56 3640.9 1065.73 3640.09 1067.25L3636.92 1067.25Z" fill-rule="evenodd"/><text fill="#000000" fill-opacity="0" font-family="Arial,Arial_MSFontService,sans-serif" font-size="34.0762" x="3631.53" y="1087.69">ğ‘§</text><path d="M0.0570341-3.43703 138.364-1.14196 138.25 5.73209-0.0570341 3.43703ZM133.952-11.5291 161.22 2.6753 133.496 15.9671Z" transform="matrix(1 0 0 -1 3749.5 1067.18)"/><path d="M3778.5 1521.06 3888.63 1521.06 3888.63 1527.94 3778.5 1527.94ZM3884.05 1510.75 3911.55 1524.5 3884.05 1538.25Z"/><path d="M3.4375-7.39166e-06 3.43781 144.917-3.43719 144.917-3.4375 7.39166e-06ZM13.7503 140.333 0.000360892 167.833-13.7497 140.333Z" transform="matrix(1 0 0 -1 3064.5 1538.33)"/><path d="M3.43755 22.9167 3.43786 155.332-3.43714 155.332-3.43745 22.9167ZM-13.7499 27.5 0 0 13.7501 27.5Z" transform="matrix(1 0 0 -1 3064.5 1223.83)"/><path d="M3022.5 1535.06 3342.76 1535.06 3342.76 1541.94 3022.5 1541.94ZM3338.18 1524.75 3365.68 1538.5 3338.18 1552.25Z"/><path d="M3017.51 1063.06 3342.75 1063.78 3342.73 1070.66 3017.49 1069.94ZM3338.19 1053.46 3365.66 1067.27 3338.12 1080.96Z"/><path d="M3017.5 1571.06 3342.74 1571.06 3342.74 1577.94 3017.5 1577.94ZM3338.16 1560.75 3365.66 1574.5 3338.16 1588.25Z" fill="#C00000"/><path d="M2490.5 1555.5C2490.5 1479.28 2608.92 1417.5 2755 1417.5 2901.08 1417.5 3019.5 1479.28 3019.5 1555.5 3019.5 1631.72 2901.08 1693.5 2755 1693.5 2608.92 1693.5 2490.5 1631.72 2490.5 1555.5Z" stroke="#000000" stroke-width="6.875" stroke-miterlimit="8" stroke-dasharray="20.625 6.875" fill="none" fill-rule="evenodd"/><path d="M2620 1574C2670.9 1542.81 2672 1440 2698 1440 2724 1440 2723.5 1542.04 2776 1574L2620 1574Z" fill="#8FAADC" fill-rule="evenodd"/><path d="M2771 1591C2814.4 1558.41 2815.33 1451 2837.5 1451 2859.67 1451 2859.24 1557.61 2904 1591L2771 1591Z" fill="#2E75B6" fill-rule="evenodd"/><path d="M2578 1646C2685.02 1622.49 2687.33 1545 2742 1545 2796.67 1545 2795.62 1621.91 2906 1646L2578 1646Z" fill="#2F5597" fill-rule="evenodd"/><path d="M845.609 957.609 923.391 1035.39M923.391 957.609 845.609 1035.39" stroke="#000000" stroke-width="9.16667" stroke-miterlimit="8" fill="none" fill-rule="evenodd"/><path d="M829.5 996.5C829.5 966.124 854.124 941.5 884.5 941.5 914.876 941.5 939.5 966.124 939.5 996.5 939.5 1026.88 914.876 1051.5 884.5 1051.5 854.124 1051.5 829.5 1026.88 829.5 996.5Z" stroke="#000000" stroke-width="9.16667" stroke-miterlimit="8" fill="none" fill-rule="evenodd"/><path d="M845.609 1704.61 923.391 1782.39M923.391 1704.61 845.609 1782.39" stroke="#C00000" stroke-width="9.16667" stroke-miterlimit="8" fill="none" fill-rule="evenodd"/><path d="M829.5 1743.5C829.5 1713.12 854.124 1688.5 884.5 1688.5 914.876 1688.5 939.5 1713.12 939.5 1743.5 939.5 1773.88 914.876 1798.5 884.5 1798.5 854.124 1798.5 829.5 1773.88 829.5 1743.5Z" stroke="#C00000" stroke-width="9.16667" stroke-miterlimit="8" fill="none" fill-rule="evenodd"/><rect x="2152.5" y="923.5" width="223" height="309" stroke="#000000" stroke-width="6.875" stroke-miterlimit="8" fill="#FFE699"/><text font-family="Times New Roman,Times New Roman_MSFontService,sans-serif" font-weight="400" font-size="64" transform="matrix(1 0 0 1 2176.2 1024)">Global<tspan font-size="64" x="14.6209" y="77">Infer</tspan><tspan font-size="64" x="138.944" y="77">-</tspan><tspan font-size="64" x="28.3709" y="154">ence</tspan></text><rect x="2154.5" y="1374.5" width="195" height="285" stroke="#000000" stroke-width="6.875" stroke-miterlimit="8" fill="#FFE699"/><rect x="2169.5" y="1389.5" width="195" height="284" stroke="#000000" stroke-width="6.875" stroke-miterlimit="8" fill="#FFE699"/><rect x="2183.5" y="1403.5" width="195" height="285" stroke="#000000" stroke-width="6.875" stroke-miterlimit="8" fill="#FFE699"/><text font-family="Times New Roman,Times New Roman_MSFontService,sans-serif" font-weight="400" font-size="64" transform="matrix(1 0 0 1 2207.75 1492)">Local<tspan font-size="64" x="0.298096" y="77">Infer</tspan><tspan font-size="64" x="124.621" y="77">-</tspan><tspan font-size="64" x="14.0481" y="154">ence</tspan></text><path d="M3367.5 1473.67C3367.5 1456.45 3381.45 1442.5 3398.67 1442.5L3720.33 1442.5C3737.55 1442.5 3751.5 1456.45 3751.5 1473.67L3751.5 1598.33C3751.5 1615.55 3737.55 1629.5 3720.33 1629.5L3398.67 1629.5C3381.45 1629.5 3367.5 1615.55 3367.5 1598.33Z" stroke="#000000" stroke-width="6.875" stroke-miterlimit="8" fill="#9DC3E6" fill-rule="evenodd"/><path d="M3380.5 1486.67C3380.5 1469.45 3394.45 1455.5 3411.67 1455.5L3733.33 1455.5C3750.55 1455.5 3764.5 1469.45 3764.5 1486.67L3764.5 1611.33C3764.5 1628.55 3750.55 1642.5 3733.33 1642.5L3411.67 1642.5C3394.45 1642.5 3380.5 1628.55 3380.5 1611.33Z" stroke="#000000" stroke-width="6.875" stroke-miterlimit="8" fill="#9DC3E6" fill-rule="evenodd"/><path d="M3393.5 1499.67C3393.5 1482.45 3407.45 1468.5 3424.67 1468.5L3746.33 1468.5C3763.55 1468.5 3777.5 1482.45 3777.5 1499.67L3777.5 1624.33C3777.5 1641.55 3763.55 1655.5 3746.33 1655.5L3424.67 1655.5C3407.45 1655.5 3393.5 1641.55 3393.5 1624.33Z" stroke="#000000" stroke-width="6.875" stroke-miterlimit="8" fill="#9DC3E6" fill-rule="evenodd"/><path d="M3426.33 1553.74 3455.6 1553.74 3454.56 1558.45 3446.08 1558.45 3442.05 1576.3C3441.53 1578.63 3441.27 1580.39 3441.27 1581.58 3441.27 1582.53 3441.42 1583.22 3441.73 1583.65 3442.04 1584.07 3442.53 1584.29 3443.19 1584.29 3444.62 1584.29 3446.29 1583.15 3448.22 1580.87L3450.29 1582.79C3448.48 1584.76 3446.84 1586.19 3445.35 1587.07 3443.86 1587.95 3442.28 1588.39 3440.59 1588.39 3438.98 1588.39 3437.7 1587.83 3436.78 1586.73 3435.85 1585.62 3435.39 1584.17 3435.39 1582.36 3435.39 1580.77 3435.72 1578.47 3436.39 1575.45L3437.17 1571.85C3437.57 1569.95 3438.15 1567.65 3438.9 1564.97 3439.65 1562.28 3440.29 1560.22 3440.84 1558.77L3440.66 1558.45 3430.18 1558.45 3425.8 1578.73C3425.44 1580.32 3425.03 1582.04 3424.55 1583.88 3424.08 1585.72 3423.71 1587.03 3423.45 1587.82L3415.89 1587.82 3416.25 1586.07C3418.77 1583.57 3421.09 1577.73 3423.23 1568.53L3425.59 1558.45 3424.44 1558.45C3422.76 1558.45 3421.33 1558.73 3420.17 1559.3 3419 1559.87 3417.73 1561.01 3416.35 1562.72L3414.11 1560.83C3415.34 1559.34 3416.35 1558.2 3417.14 1557.41 3417.92 1556.63 3418.75 1555.96 3419.61 1555.42 3420.48 1554.87 3421.46 1554.45 3422.54 1554.17 3423.62 1553.88 3424.88 1553.74 3426.33 1553.74Z" fill-rule="evenodd"/><text fill="#000000" fill-opacity="0" font-family="Arial,Arial_MSFontService,sans-serif" font-size="34.6465" x="3414.11" y="1584.06">ğœ‹</text><path d="M3472.9 1534.79 3474.17 1534.79 3470.34 1552.03C3470.1 1553.05 3469.93 1553.86 3469.84 1554.46 3469.74 1555.07 3469.69 1555.61 3469.69 1556.09 3469.69 1556.75 3469.83 1557.22 3470.09 1557.52 3470.36 1557.81 3470.76 1557.96 3471.3 1557.96 3471.61 1557.96 3471.92 1557.9 3472.23 1557.78 3472.54 1557.65 3472.87 1557.46 3473.23 1557.21 3473.58 1556.95 3473.97 1556.61 3474.39 1556.21 3474.81 1555.8 3475.28 1555.32 3475.8 1554.75L3477.56 1556.46C3476.66 1557.37 3475.85 1558.14 3475.12 1558.77 3474.38 1559.4 3473.69 1559.91 3473.03 1560.31 3472.38 1560.71 3471.73 1560.99 3471.1 1561.17 3470.47 1561.34 3469.81 1561.42 3469.1 1561.42 3468.44 1561.42 3467.85 1561.3 3467.33 1561.06 3466.8 1560.82 3466.35 1560.49 3465.97 1560.07 3465.59 1559.64 3465.29 1559.14 3465.09 1558.55 3464.88 1557.96 3464.78 1557.32 3464.78 1556.61 3464.78 1556.04 3464.85 1555.33 3464.98 1554.49 3465.12 1553.64 3465.3 1552.72 3465.51 1551.73 3465.73 1550.74 3465.97 1549.7 3466.23 1548.61 3466.48 1547.53 3466.74 1546.45 3466.99 1545.38 3467.24 1544.31 3467.46 1543.28 3467.66 1542.29 3467.86 1541.29 3468 1540.39 3468.09 1539.58 3468.12 1539.44 3468.14 1539.31 3468.14 1539.18 3468.14 1539.05 3468.14 1538.94 3468.14 1538.83 3468.11 1538.16 3467.87 1537.67 3467.43 1537.36 3466.99 1537.05 3466.21 1536.87 3465.09 1536.84L3465.4 1535.08ZM3471.4 1524.37 3476.58 1524.37 3475.31 1529.93 3470.19 1529.93Z" fill-rule="evenodd"/><text fill="#000000" fill-opacity="0" font-family="Arial,Arial_MSFontService,sans-serif" font-size="37.0586" x="3464.78" y="1556.79">ğ‘–</text><path d="M3568.49 1522.87 3573.98 1522.87 3573.98 1611.06 3568.49 1611.06ZM3513.85 1522.87 3514.74 1525.8C3508.99 1527.96 3504.64 1532.67 3501.68 1539.95 3498.72 1547.22 3497.24 1556.24 3497.24 1567 3497.24 1577.74 3498.72 1586.74 3501.68 1594 3504.64 1601.26 3508.99 1605.97 3514.74 1608.13L3513.85 1611.06C3506.44 1609.11 3500.72 1604.06 3496.71 1595.91 3492.69 1587.76 3490.68 1578.11 3490.68 1566.96 3490.68 1555.82 3492.69 1546.17 3496.71 1538.02 3500.72 1529.87 3506.44 1524.82 3513.85 1522.87ZM3741.19 1522.87C3748.6 1524.82 3754.32 1529.87 3758.33 1538.02 3762.35 1546.17 3764.36 1555.82 3764.36 1566.96 3764.36 1578.11 3762.35 1587.76 3758.33 1595.91 3754.32 1604.06 3748.6 1609.11 3741.19 1611.06L3740.3 1608.13C3746.05 1605.97 3750.4 1601.26 3753.36 1594 3756.32 1586.74 3757.8 1577.74 3757.8 1567 3757.8 1556.24 3756.32 1547.22 3753.36 1539.95 3750.4 1532.67 3746.05 1527.96 3740.3 1525.8Z" fill-rule="evenodd"/><path d="M3540.07 1555.95C3537.62 1555.95 3535.43 1556.94 3533.48 1558.91 3531.53 1560.88 3530.01 1563.52 3528.91 1566.84 3527.82 1570.15 3527.27 1573.46 3527.27 1576.77 3527.27 1579.24 3527.61 1581.09 3528.29 1582.31 3528.97 1583.53 3530.1 1584.15 3531.69 1584.15 3533.26 1584.15 3534.8 1583.47 3536.31 1582.11 3537.82 1580.76 3539.38 1578.83 3540.98 1576.32 3542.58 1573.81 3543.72 1570.92 3544.38 1567.64L3544.7 1566.11C3544.92 1565.13 3545.06 1564.29 3545.13 1563.58 3545.2 1562.87 3545.24 1562.09 3545.24 1561.26 3545.24 1559.43 3544.85 1558.09 3544.06 1557.23 3543.28 1556.38 3541.95 1555.95 3540.07 1555.95ZM3539.36 1553.13C3540.9 1553.13 3542.35 1553.31 3543.69 1553.65 3545.03 1554 3546.42 1554.61 3547.84 1555.49L3551.12 1553.13 3553.4 1553.7 3548.16 1576.3C3547.64 1578.56 3547.38 1580.32 3547.38 1581.58 3547.38 1582.53 3547.53 1583.22 3547.84 1583.65 3548.15 1584.07 3548.64 1584.29 3549.3 1584.29 3550.02 1584.29 3550.78 1584 3551.58 1583.41 3552.39 1582.83 3553.53 1581.72 3555.01 1580.08L3557.04 1582.08C3554.9 1584.36 3553.08 1585.98 3551.57 1586.94 3550.06 1587.91 3548.42 1588.39 3546.67 1588.39 3545.19 1588.39 3544.02 1587.9 3543.14 1586.93 3542.26 1585.95 3541.82 1584.66 3541.82 1583.04 3541.82 1581.73 3542.09 1580.34 3542.64 1578.87L3542.17 1578.73C3539.89 1582.05 3537.73 1584.49 3535.69 1586.03 3533.64 1587.58 3531.48 1588.35 3529.2 1588.35 3526.59 1588.35 3524.56 1587.36 3523.12 1585.39 3521.68 1583.42 3520.97 1580.65 3520.97 1577.09 3520.97 1573 3521.77 1569.07 3523.37 1565.31 3524.98 1561.54 3527.18 1558.57 3529.98 1556.4 3532.79 1554.22 3535.91 1553.13 3539.36 1553.13Z" fill-rule="evenodd"/><text fill="#000000" fill-opacity="0" font-family="Arial,Arial_MSFontService,sans-serif" font-size="35.2524" x="3520.97" y="1583.98">ğ‘</text><path d="M3605.46 1556.02C3602.99 1556.02 3600.84 1557.06 3599 1559.12 3597.15 1561.19 3595.7 1564.15 3594.65 1568 3593.59 1571.85 3593.06 1575.16 3593.06 1577.94 3593.06 1580.56 3593.6 1582.49 3594.68 1583.74 3595.76 1584.98 3597.4 1585.61 3599.58 1585.61 3601.91 1585.61 3603.98 1584.56 3605.79 1582.47 3607.59 1580.38 3609.02 1577.45 3610.06 1573.68 3611.11 1569.92 3611.63 1566.61 3611.63 1563.76 3611.63 1561.19 3611.13 1559.26 3610.13 1557.96 3609.14 1556.67 3607.58 1556.02 3605.46 1556.02ZM3606.18 1553.17C3609.98 1553.17 3612.88 1554.21 3614.87 1556.29 3616.87 1558.37 3617.87 1561.34 3617.87 1565.22 3617.87 1567.97 3617.39 1570.92 3616.43 1574.06 3615.46 1577.19 3614.14 1579.83 3612.47 1581.97 3610.79 1584.11 3608.79 1585.72 3606.46 1586.8 3604.13 1587.88 3601.46 1588.42 3598.44 1588.42 3594.76 1588.42 3591.9 1587.39 3589.87 1585.32 3587.84 1583.25 3586.82 1580.28 3586.82 1576.41 3586.82 1574.51 3587.11 1572.31 3587.68 1569.82 3588.41 1566.44 3589.65 1563.5 3591.39 1560.98 3593.12 1558.46 3595.26 1556.53 3597.8 1555.18 3600.34 1553.84 3603.14 1553.17 3606.18 1553.17Z" fill-rule="evenodd"/><text fill="#000000" fill-opacity="0" font-family="Arial,Arial_MSFontService,sans-serif" font-size="35.2524" x="3586.82" y="1584.02">ğ‘œ</text><path d="M3636.6 1534.79 3637.86 1534.79 3634.03 1552.03C3633.79 1553.05 3633.62 1553.86 3633.53 1554.46 3633.43 1555.07 3633.39 1555.61 3633.39 1556.09 3633.39 1556.75 3633.52 1557.22 3633.79 1557.52 3634.06 1557.81 3634.46 1557.96 3634.99 1557.96 3635.3 1557.96 3635.61 1557.9 3635.92 1557.78 3636.23 1557.65 3636.57 1557.46 3636.92 1557.21 3637.27 1556.95 3637.66 1556.61 3638.08 1556.21 3638.51 1555.8 3638.98 1555.32 3639.49 1554.75L3641.25 1556.46C3640.36 1557.37 3639.54 1558.14 3638.81 1558.77 3638.08 1559.4 3637.38 1559.91 3636.73 1560.31 3636.07 1560.71 3635.43 1560.99 3634.8 1561.17 3634.17 1561.34 3633.5 1561.42 3632.79 1561.42 3632.14 1561.42 3631.55 1561.3 3631.02 1561.06 3630.49 1560.82 3630.04 1560.49 3629.66 1560.07 3629.28 1559.64 3628.99 1559.14 3628.78 1558.55 3628.57 1557.96 3628.47 1557.32 3628.47 1556.61 3628.47 1556.04 3628.54 1555.33 3628.68 1554.49 3628.82 1553.64 3628.99 1552.72 3629.21 1551.73 3629.42 1550.74 3629.66 1549.7 3629.92 1548.61 3630.18 1547.53 3630.43 1546.45 3630.68 1545.38 3630.93 1544.31 3631.16 1543.28 3631.36 1542.29 3631.55 1541.29 3631.7 1540.39 3631.78 1539.58 3631.82 1539.44 3631.83 1539.31 3631.83 1539.18 3631.83 1539.05 3631.83 1538.94 3631.83 1538.83 3631.8 1538.16 3631.56 1537.67 3631.12 1537.36 3630.68 1537.05 3629.9 1536.87 3628.78 1536.84L3629.09 1535.08ZM3635.1 1524.37 3640.27 1524.37 3639 1529.93 3633.88 1529.93Z" fill-rule="evenodd"/><text fill="#000000" fill-opacity="0" font-family="Arial,Arial_MSFontService,sans-serif" font-size="37.0586" x="3628.47" y="1556.79">ğ‘–</text><path d="M3652.74 1579.55 3658.98 1579.55C3659.31 1581.21 3659.48 1582.85 3659.48 1584.47 3659.48 1586.13 3659.19 1587.65 3658.62 1589.03 3658.05 1590.41 3657.14 1591.78 3655.89 1593.15 3654.65 1594.51 3652.93 1596.01 3650.74 1597.65L3648.82 1595.48C3650.03 1594.34 3650.91 1593.31 3651.46 1592.4 3652 1591.48 3652.39 1590.44 3652.63 1589.28 3652.87 1588.11 3652.99 1586.65 3652.99 1584.89 3652.99 1583.09 3652.9 1581.31 3652.74 1579.55Z" fill-rule="evenodd"/><text fill="#000000" fill-opacity="0" font-family="Arial,Arial_MSFontService,sans-serif" font-size="18.1074" x="3648.82" y="1595.39">,</text><path d="M3683.45 1553.74 3708.79 1553.74 3709.47 1555.52 3692.47 1575.06C3689.16 1578.83 3686.3 1582.04 3683.88 1584.68L3684.09 1584.93 3692.15 1584.93C3693.57 1584.93 3694.67 1584.85 3695.43 1584.7 3696.19 1584.54 3696.85 1584.25 3697.42 1583.82 3697.99 1583.4 3698.58 1582.75 3699.19 1581.88 3699.79 1581.01 3700.55 1579.65 3701.45 1577.8L3704.62 1577.8 3702.45 1587.82 3676.64 1587.82 3675.96 1586.07 3695.46 1563.61C3698.22 1560.45 3700.24 1558.21 3701.52 1556.88L3701.31 1556.63 3692.97 1556.63C3691.73 1556.63 3690.83 1556.71 3690.26 1556.88 3689.69 1557.04 3689.12 1557.33 3688.55 1557.75 3687.98 1558.17 3687.36 1558.78 3686.71 1559.6 3686.06 1560.42 3685.33 1561.59 3684.52 1563.11L3681.35 1563.11Z" fill-rule="evenodd"/><text fill="#000000" fill-opacity="0" font-family="Arial,Arial_MSFontService,sans-serif" font-size="34.0762" x="3675.96" y="1583.56">ğ‘§</text><path d="M3726.61 1534.79 3727.88 1534.79 3724.05 1552.03C3723.81 1553.05 3723.64 1553.86 3723.55 1554.46 3723.45 1555.07 3723.4 1555.61 3723.4 1556.09 3723.4 1556.75 3723.54 1557.22 3723.81 1557.52 3724.07 1557.81 3724.47 1557.96 3725.01 1557.96 3725.32 1557.96 3725.63 1557.9 3725.94 1557.78 3726.25 1557.65 3726.58 1557.46 3726.94 1557.21 3727.29 1556.95 3727.68 1556.61 3728.1 1556.21 3728.52 1555.8 3728.99 1555.32 3729.51 1554.75L3731.27 1556.46C3730.37 1557.37 3729.56 1558.14 3728.83 1558.77 3728.09 1559.4 3727.4 1559.91 3726.74 1560.31 3726.09 1560.71 3725.44 1560.99 3724.81 1561.17 3724.19 1561.34 3723.52 1561.42 3722.81 1561.42 3722.15 1561.42 3721.56 1561.3 3721.04 1561.06 3720.51 1560.82 3720.06 1560.49 3719.68 1560.07 3719.3 1559.64 3719 1559.14 3718.8 1558.55 3718.59 1557.96 3718.49 1557.32 3718.49 1556.61 3718.49 1556.04 3718.56 1555.33 3718.69 1554.49 3718.83 1553.64 3719.01 1552.72 3719.22 1551.73 3719.44 1550.74 3719.68 1549.7 3719.94 1548.61 3720.2 1547.53 3720.45 1546.45 3720.7 1545.38 3720.95 1544.31 3721.17 1543.28 3721.37 1542.29 3721.57 1541.29 3721.71 1540.39 3721.8 1539.58 3721.83 1539.44 3721.85 1539.31 3721.85 1539.18 3721.85 1539.05 3721.85 1538.94 3721.85 1538.83 3721.82 1538.16 3721.58 1537.67 3721.14 1537.36 3720.7 1537.05 3719.92 1536.87 3718.8 1536.84L3719.11 1535.08ZM3725.11 1524.37 3730.29 1524.37 3729.02 1529.93 3723.9 1529.93Z" fill-rule="evenodd"/><text fill="#000000" fill-opacity="0" font-family="Arial,Arial_MSFontService,sans-serif" font-size="37.0586" x="3718.49" y="1556.79">ğ‘–</text><path d="M2042.5 1073.06 2129.22 1073.06 2129.22 1079.94 2042.5 1079.94ZM2124.64 1062.75 2152.14 1076.5 2124.64 1090.25Z"/><path d="M1718.5 1263.06 1818.22 1263.06 1818.22 1269.94 1718.5 1269.94ZM1813.64 1252.75 1841.14 1266.5 1813.64 1280.25Z"/><path d="M1718.5 1391.06 1818.22 1391.06 1818.22 1397.94 1718.5 1397.94ZM1813.64 1380.75 1841.14 1394.5 1813.64 1408.25Z" fill="#C00000"/><path d="M2042.5 1529.06 2129.22 1529.06 2129.22 1535.94 2042.5 1535.94ZM2124.64 1518.75 2152.14 1532.5 2124.64 1546.25Z"/><path d="M2042.5 1587.06 2129.22 1587.06 2129.22 1593.94 2042.5 1593.94ZM2124.64 1576.75 2152.14 1590.5 2124.64 1604.25Z" fill="#C00000"/><path d="M3899.5 1606.5 3949.9 1468.5 4151.5 1468.5 4101.1 1606.5Z" stroke="#000000" stroke-width="6.875" stroke-miterlimit="8" fill="#A9D18E" fill-rule="evenodd"/><path d="M3912.5 1619.5 3962.9 1481.5 4164.5 1481.5 4114.1 1619.5Z" stroke="#000000" stroke-width="6.875" stroke-miterlimit="8" fill="#A9D18E" fill-rule="evenodd"/><path d="M4017.65 1521.19C4019.72 1521.19 4021.53 1521.77 4023.07 1522.93 4024.62 1524.1 4025.98 1525.82 4027.17 1528.1L4021.68 1530.49C4020.54 1528.16 4019.55 1526.55 4018.72 1525.66 4017.89 1524.77 4016.86 1524.32 4015.62 1524.32 4014.96 1524.32 4014.34 1524.44 4013.77 1524.68 4013.2 1524.92 4012.67 1525.39 4012.2 1526.09 4011.72 1526.79 4011.32 1527.72 4010.99 1528.88 4010.65 1530.05 4010.2 1531.99 4009.63 1534.69L4007.14 1546.49C4006.76 1548.28 4006.33 1549.84 4005.85 1551.2 4005.38 1552.55 4004.83 1553.84 4004.2 1555.05 4003.57 1556.26 4002.9 1557.34 4002.2 1558.27 4001.5 1559.21 4000.7 1560.16 3999.79 1561.11L3999.79 1561.46C4001.29 1561.46 4002.77 1561.63 4004.23 1561.96 4005.69 1562.3 4007.14 1562.72 4008.56 1563.25 4010.01 1563.79 4011.4 1564.23 4012.72 1564.55 4014.03 1564.87 4015.34 1565.03 4016.62 1565.03 4018.02 1565.03 4019.21 1564.84 4020.18 1564.46 4021.16 1564.08 4022.11 1563.42 4023.05 1562.5 4023.99 1561.57 4025.25 1559.91 4026.81 1557.51L4029.52 1559.29C4026.65 1563.73 4024.18 1566.79 4022.13 1568.47 4020.07 1570.14 4018 1570.98 4015.91 1570.98 4014.12 1570.98 4012.44 1570.79 4010.86 1570.41 4009.28 1570.03 4007.73 1569.52 4006.21 1568.88 4004.5 1568.19 4003.02 1567.67 4001.77 1567.33 4000.53 1566.98 3999.25 1566.81 3997.94 1566.81 3996.52 1566.81 3995.16 1567.08 3993.86 1567.61 3992.56 1568.15 3990.72 1569.27 3988.32 1570.98L3986.43 1568.63C3989.4 1565.94 3991.91 1564.11 3993.95 1563.14 3996.59 1560.62 3998.5 1556.63 3999.69 1551.16L4003.11 1535.41C4003.73 1532.56 4004.48 1530.26 4005.36 1528.53 4006.23 1526.79 4007.28 1525.45 4008.49 1524.48 4009.7 1523.52 4011.05 1522.73 4012.52 1522.11 4013.99 1521.49 4015.7 1521.19 4017.65 1521.19Z" fill-rule="evenodd"/><text fill="#000000" fill-opacity="0" font-family="Arial,Arial_MSFontService,sans-serif" font-size="49.7954" x="3986.43" y="1564.76">â„’</text><path d="M4043.23 1559.5 4066.16 1559.5 4065.36 1563.51 4058.65 1563.51 4055.6 1576.91C4055.41 1577.69 4055.27 1578.38 4055.17 1578.98 4055.08 1579.59 4055.03 1580.11 4055.03 1580.56 4055.03 1581.11 4055.15 1581.55 4055.38 1581.88 4055.61 1582.21 4056.03 1582.37 4056.64 1582.37 4057.29 1582.37 4057.96 1582.11 4058.63 1581.6 4059.3 1581.08 4060.06 1580.35 4060.91 1579.4L4062.69 1581.08C4061.88 1581.96 4061.12 1582.7 4060.41 1583.3 4059.71 1583.91 4059.03 1584.4 4058.38 1584.77 4057.74 1585.14 4057.1 1585.41 4056.47 1585.58 4055.84 1585.75 4055.2 1585.84 4054.54 1585.84 4053.87 1585.84 4053.27 1585.72 4052.74 1585.48 4052.22 1585.24 4051.76 1584.9 4051.38 1584.46 4051 1584.02 4050.71 1583.49 4050.52 1582.89 4050.32 1582.29 4050.22 1581.63 4050.22 1580.92 4050.22 1580.23 4050.27 1579.49 4050.37 1578.7 4050.48 1577.9 4050.65 1576.96 4050.89 1575.88 4051.03 1575.34 4051.21 1574.61 4051.43 1573.69 4051.66 1572.77 4051.92 1571.75 4052.21 1570.64 4052.5 1569.52 4052.82 1568.36 4053.17 1567.14 4053.51 1565.93 4053.88 1564.75 4054.28 1563.61 4054.28 1563.54 4054.26 1563.51 4054.23 1563.51L4045.97 1563.51 4040.95 1585.38 4034.69 1585.38 4035 1583.59C4036.04 1582.61 4037 1581.08 4037.89 1579.01 4038.78 1576.94 4039.58 1574.32 4040.31 1571.17L4042.07 1563.51 4041.16 1563.51C4040.49 1563.51 4039.88 1563.55 4039.35 1563.64 4038.81 1563.72 4038.31 1563.89 4037.82 1564.14 4037.34 1564.39 4036.86 1564.73 4036.37 1565.16 4035.89 1565.6 4035.36 1566.15 4034.79 1566.82L4032.96 1565.01C4033.87 1563.97 4034.67 1563.11 4035.36 1562.41 4036.05 1561.71 4036.76 1561.14 4037.49 1560.71 4038.21 1560.28 4039.02 1559.97 4039.91 1559.78 4040.79 1559.59 4041.9 1559.5 4043.23 1559.5Z" fill-rule="evenodd"/><text fill="#000000" fill-opacity="0" font-family="Arial,Arial_MSFontService,sans-serif" font-size="26.3447" x="4032.96" y="1582.55">ğœ‹</text><path d="M4046.33 1517.39 4047.6 1517.39 4043.77 1534.62C4043.53 1535.64 4043.36 1536.45 4043.27 1537.06 4043.17 1537.66 4043.12 1538.2 4043.12 1538.69 4043.12 1539.34 4043.26 1539.82 4043.53 1540.11 4043.79 1540.4 4044.19 1540.55 4044.73 1540.55 4045.04 1540.55 4045.35 1540.49 4045.66 1540.37 4045.97 1540.25 4046.3 1540.06 4046.66 1539.8 4047.01 1539.54 4047.4 1539.21 4047.82 1538.8 4048.24 1538.4 4048.71 1537.91 4049.23 1537.34L4050.99 1539.05C4050.09 1539.96 4049.28 1540.74 4048.55 1541.37 4047.81 1542 4047.12 1542.51 4046.46 1542.91 4045.81 1543.3 4045.16 1543.59 4044.53 1543.76 4043.91 1543.93 4043.24 1544.02 4042.53 1544.02 4041.87 1544.02 4041.28 1543.9 4040.76 1543.66 4040.23 1543.41 4039.78 1543.08 4039.4 1542.66 4039.02 1542.24 4038.73 1541.73 4038.52 1541.15 4038.31 1540.56 4038.21 1539.91 4038.21 1539.2 4038.21 1538.64 4038.28 1537.93 4038.41 1537.08 4038.55 1536.24 4038.73 1535.32 4038.95 1534.33 4039.16 1533.33 4039.4 1532.3 4039.66 1531.21 4039.92 1530.12 4040.17 1529.04 4040.42 1527.97 4040.67 1526.9 4040.89 1525.87 4041.09 1524.88 4041.29 1523.89 4041.43 1522.99 4041.52 1522.18 4041.55 1522.04 4041.57 1521.9 4041.57 1521.78 4041.57 1521.65 4041.57 1521.53 4041.57 1521.43 4041.54 1520.75 4041.3 1520.26 4040.86 1519.95 4040.42 1519.64 4039.64 1519.47 4038.52 1519.43L4038.83 1517.67ZM4044.83 1506.96 4050.01 1506.96 4048.74 1512.52 4043.62 1512.52Z" fill-rule="evenodd"/><text fill="#000000" fill-opacity="0" font-family="Arial,Arial_MSFontService,sans-serif" font-size="37.0586" x="4038.21" y="1539.39">ğ‘–</text><path d="M2912.5 1370.5 2973.3 1224.5 3216.5 1224.5 3155.7 1370.5Z" stroke="#000000" stroke-width="6.875" stroke-miterlimit="8" fill="#A9D18E" fill-rule="evenodd"/><path d="M2990.43 1266.46C2992.49 1266.46 2994.3 1267.04 2995.85 1268.2 2997.39 1269.37 2998.76 1271.09 2999.94 1273.37L2994.46 1275.76C2993.31 1273.43 2992.33 1271.82 2991.5 1270.93 2990.67 1270.04 2989.63 1269.59 2988.4 1269.59 2987.73 1269.59 2987.11 1269.71 2986.54 1269.95 2985.97 1270.19 2985.45 1270.66 2984.97 1271.36 2984.5 1272.06 2984.09 1272.99 2983.76 1274.16 2983.43 1275.32 2982.98 1277.26 2982.41 1279.97L2979.91 1291.77C2979.53 1293.55 2979.1 1295.12 2978.63 1296.47 2978.15 1297.82 2977.6 1299.11 2976.97 1300.32 2976.34 1301.53 2975.68 1302.61 2974.98 1303.55 2974.27 1304.48 2973.47 1305.43 2972.57 1306.38L2972.57 1306.74C2974.07 1306.74 2975.55 1306.9 2977.01 1307.23 2978.47 1307.57 2979.91 1308 2981.34 1308.52 2982.79 1309.06 2984.17 1309.5 2985.49 1309.82 2986.81 1310.14 2988.11 1310.3 2989.39 1310.3 2990.8 1310.3 2991.98 1310.11 2992.96 1309.73 2993.93 1309.35 2994.89 1308.7 2995.83 1307.77 2996.77 1306.84 2998.02 1305.18 2999.59 1302.78L3002.3 1304.56C2999.42 1309.01 2996.96 1312.06 2994.9 1313.74 2992.85 1315.42 2990.77 1316.25 2988.68 1316.25 2986.9 1316.25 2985.22 1316.06 2983.64 1315.68 2982.06 1315.3 2980.51 1314.79 2978.99 1314.15 2977.27 1313.46 2975.8 1312.94 2974.55 1312.6 2973.3 1312.25 2972.02 1312.08 2970.72 1312.08 2969.29 1312.08 2967.93 1312.35 2966.63 1312.88 2965.34 1313.42 2963.49 1314.54 2961.09 1316.25L2959.2 1313.9C2962.17 1311.22 2964.68 1309.39 2966.72 1308.41 2969.36 1305.89 2971.27 1301.9 2972.46 1296.43L2975.88 1280.68C2976.5 1277.83 2977.25 1275.54 2978.13 1273.8 2979.01 1272.07 2980.05 1270.72 2981.27 1269.75 2982.48 1268.79 2983.82 1268 2985.29 1267.38 2986.77 1266.77 2988.48 1266.46 2990.43 1266.46Z" fill-rule="evenodd"/><text fill="#000000" fill-opacity="0" font-family="Arial,Arial_MSFontService,sans-serif" font-size="49.7954" x="2959.2" y="1310.03">â„’</text><path d="M3101.91 1297.13C3103.71 1297.13 3105.24 1297.34 3106.51 1297.74 3107.77 1298.15 3108.81 1298.7 3109.6 1299.39 3110.39 1300.08 3110.97 1300.9 3111.32 1301.87 3111.67 1302.84 3111.85 1303.88 3111.85 1305 3111.85 1305.67 3111.8 1306.3 3111.71 1306.88 3111.61 1307.46 3111.45 1308.02 3111.22 1308.59 3110.98 1309.15 3110.68 1309.71 3110.3 1310.28 3109.92 1310.85 3109.44 1311.45 3108.87 1312.09 3108.44 1312.64 3107.88 1313.28 3107.19 1314.01 3106.5 1314.73 3105.75 1315.51 3104.93 1316.34 3104.11 1317.16 3103.25 1318.03 3102.35 1318.92 3101.46 1319.82 3100.58 1320.71 3099.74 1321.59 3098.89 1322.47 3098.12 1323.32 3097.41 1324.15 3096.7 1324.98 3096.12 1325.74 3095.68 1326.43L3105.25 1326.43C3106.06 1326.43 3106.71 1326.4 3107.19 1326.34 3107.68 1326.28 3108.08 1326.14 3108.4 1325.94 3108.71 1325.73 3108.99 1325.42 3109.21 1324.99 3109.44 1324.57 3109.69 1323.99 3109.99 1323.25L3112.39 1323.25C3112.31 1324.47 3112.23 1325.7 3112.15 1326.95 3112.07 1328.19 3111.99 1329.42 3111.9 1330.65L3089.98 1330.65 3089.98 1329.3C3090.4 1328.37 3090.88 1327.45 3091.43 1326.55 3091.98 1325.64 3092.6 1324.72 3093.3 1323.79 3093.99 1322.86 3094.77 1321.9 3095.65 1320.9 3096.53 1319.91 3097.5 1318.88 3098.57 1317.81 3100.2 1316.19 3101.52 1314.8 3102.53 1313.66 3103.55 1312.51 3104.35 1311.49 3104.94 1310.59 3105.53 1309.69 3105.93 1308.87 3106.14 1308.11 3106.36 1307.35 3106.47 1306.54 3106.47 1305.67 3106.47 1304.79 3106.34 1303.98 3106.09 1303.24 3105.84 1302.5 3105.48 1301.87 3105.02 1301.35 3104.55 1300.83 3103.96 1300.43 3103.25 1300.14 3102.53 1299.84 3101.71 1299.7 3100.77 1299.7 3099.17 1299.7 3097.82 1300.13 3096.74 1301 3095.65 1301.87 3094.8 1303.14 3094.2 1304.79L3090.81 1304.79 3090.81 1299.75C3093.02 1298.83 3095.05 1298.17 3096.91 1297.76 3098.76 1297.34 3100.43 1297.13 3101.91 1297.13ZM3125.56 1297.08 3136.48 1297.08 3136.2 1298.63C3135.6 1298.79 3135.12 1298.92 3134.76 1299.04 3134.41 1299.15 3134.11 1299.39 3133.86 1299.75 3133.61 1300.11 3133.38 1300.65 3133.18 1301.37 3132.99 1302.08 3132.73 1303.13 3132.42 1304.51L3127.17 1327.9 3133.92 1327.9C3134.87 1327.9 3135.69 1327.82 3136.38 1327.66 3137.07 1327.49 3137.71 1327.15 3138.3 1326.62 3138.88 1326.1 3139.45 1325.35 3139.99 1324.38 3140.53 1323.42 3141.13 1322.13 3141.79 1320.53L3144.64 1320.53 3141.97 1330.65 3119.17 1330.65 3119.46 1329.07C3119.99 1328.98 3120.43 1328.87 3120.78 1328.74 3121.12 1328.62 3121.43 1328.37 3121.69 1327.99 3121.96 1327.62 3122.2 1327.07 3122.42 1326.33 3122.63 1325.58 3122.89 1324.55 3123.18 1323.22L3127.43 1304.35C3127.6 1303.59 3127.73 1302.92 3127.81 1302.34 3127.9 1301.75 3127.94 1301.25 3127.94 1300.83 3127.94 1300.08 3127.75 1299.54 3127.35 1299.22 3126.95 1298.9 3126.23 1298.73 3125.18 1298.71ZM3012.51 1297.08 3022.4 1297.08 3025.79 1320.42 3040.72 1297.08 3049.36 1297.08 3049.05 1298.63C3048.48 1298.79 3048.03 1298.93 3047.68 1299.05 3047.34 1299.17 3047.04 1299.41 3046.8 1299.76 3046.56 1300.11 3046.34 1300.65 3046.13 1301.38 3045.92 1302.1 3045.66 1303.15 3045.35 1304.51L3041.13 1323.43C3040.96 1324.27 3040.83 1324.96 3040.75 1325.48 3040.66 1326.01 3040.62 1326.51 3040.62 1326.97 3040.62 1327.7 3040.82 1328.21 3041.24 1328.51 3041.65 1328.81 3042.37 1329 3043.39 1329.07L3043.02 1330.65 3032.02 1330.65 3032.36 1329.07C3032.91 1328.96 3033.34 1328.84 3033.64 1328.71 3033.94 1328.57 3034.18 1328.39 3034.35 1328.16 3034.54 1327.99 3034.75 1327.61 3034.96 1327.04 3035.18 1326.46 3035.41 1325.75 3035.65 1324.9 3035.89 1324.06 3036.13 1323.11 3036.37 1322.07 3036.61 1321.02 3036.86 1319.93 3037.12 1318.79 3037.38 1317.66 3037.63 1316.5 3037.87 1315.34 3038.11 1314.18 3038.36 1313.06 3038.6 1311.99 3038.72 1311.37 3038.87 1310.63 3039.06 1309.78 3039.25 1308.92 3039.46 1308.07 3039.67 1307.23 3039.89 1306.38 3040.09 1305.59 3040.29 1304.86 3040.49 1304.13 3040.67 1303.56 3040.82 1303.16L3040.46 1303.16 3025.27 1326.87 3022.27 1326.87 3018.59 1302.36 3018.15 1302.36C3017.98 1303.47 3017.75 1304.85 3017.45 1306.52 3017.16 1308.18 3016.78 1310.13 3016.32 1312.38 3016.13 1313.17 3015.93 1314.02 3015.72 1314.91 3015.51 1315.81 3015.3 1316.73 3015.07 1317.68 3014.85 1318.63 3014.63 1319.57 3014.41 1320.5 3014.2 1321.43 3014.01 1322.31 3013.84 1323.13 3013.68 1323.95 3013.55 1324.69 3013.46 1325.37 3013.36 1326.04 3013.31 1326.58 3013.31 1326.97 3013.31 1327.7 3013.52 1328.21 3013.93 1328.51 3014.35 1328.81 3015.06 1329 3016.06 1329.07L3015.77 1330.65 3006.12 1330.65 3006.46 1329.07C3006.96 1328.98 3007.38 1328.88 3007.72 1328.77 3008.07 1328.66 3008.38 1328.42 3008.64 1328.06 3008.91 1327.7 3009.16 1327.14 3009.39 1326.4 3009.63 1325.66 3009.89 1324.6 3010.18 1323.22L3014.43 1304.35C3014.58 1303.66 3014.7 1303.02 3014.78 1302.43 3014.85 1301.83 3014.89 1301.3 3014.89 1300.83 3014.89 1300.08 3014.69 1299.54 3014.3 1299.22 3013.9 1298.9 3013.18 1298.73 3012.12 1298.71ZM3074.08 1296.59C3075.79 1296.59 3077.4 1296.72 3078.92 1296.98 3080.44 1297.24 3081.98 1297.62 3083.55 1298.12L3081.97 1305 3079.18 1305C3079.08 1303.03 3078.61 1301.58 3077.77 1300.64 3076.93 1299.7 3075.59 1299.23 3073.74 1299.23 3071.04 1299.23 3068.64 1300.37 3066.55 1302.65 3065.67 1303.61 3064.85 1304.8 3064.09 1306.22 3063.33 1307.63 3062.67 1309.17 3062.11 1310.82 3061.55 1312.48 3061.11 1314.2 3060.79 1315.97 3060.47 1317.75 3060.31 1319.48 3060.31 1321.18 3060.31 1323.71 3060.79 1325.57 3061.75 1326.74 3062.71 1327.91 3064.2 1328.5 3066.21 1328.5 3066.94 1328.5 3067.65 1328.43 3068.35 1328.28 3069.05 1328.13 3069.7 1327.9 3070.32 1327.59 3070.93 1327.28 3071.47 1326.88 3071.95 1326.39 3072.42 1325.9 3072.8 1325.32 3073.07 1324.64 3073.26 1324.21 3073.43 1323.71 3073.58 1323.14 3073.72 1322.57 3073.84 1322.01 3073.93 1321.46 3074.01 1320.91 3074.08 1320.41 3074.12 1319.96 3074.16 1319.51 3074.18 1319.17 3074.18 1318.95 3074.18 1318.19 3073.98 1317.66 3073.58 1317.36 3073.17 1317.06 3072.44 1316.88 3071.39 1316.83L3071.75 1315.25 3082.75 1315.25 3082.36 1316.83C3081.74 1316.97 3081.27 1317.1 3080.94 1317.24 3080.61 1317.38 3080.34 1317.64 3080.11 1318.02 3079.96 1318.21 3079.76 1318.73 3079.52 1319.6 3079.27 1320.46 3079 1321.49 3078.7 1322.69 3078.4 1323.89 3078.09 1325.19 3077.77 1326.58 3077.45 1327.98 3077.15 1329.32 3076.88 1330.6 3076.51 1330.7 3076.16 1330.79 3075.82 1330.88 3075.47 1330.97 3075.1 1331.05 3074.7 1331.14 3074.44 1330.85 3074.19 1330.54 3073.95 1330.22 3073.71 1329.9 3073.48 1329.59 3073.25 1329.28 3072.43 1329.66 3071.68 1329.97 3071.01 1330.22 3070.35 1330.47 3069.72 1330.67 3069.13 1330.82 3068.53 1330.96 3067.95 1331.07 3067.38 1331.13 3066.81 1331.19 3066.21 1331.22 3065.59 1331.22 3063.82 1331.22 3062.27 1330.94 3060.95 1330.38 3059.63 1329.81 3058.54 1329.03 3057.67 1328.02 3056.81 1327.01 3056.17 1325.81 3055.75 1324.42 3055.32 1323.03 3055.11 1321.5 3055.11 1319.83 3055.11 1318.07 3055.28 1316.28 3055.63 1314.46 3055.97 1312.64 3056.5 1310.87 3057.21 1309.14 3057.92 1307.42 3058.8 1305.79 3059.85 1304.26 3060.9 1302.74 3062.13 1301.41 3063.54 1300.28 3064.94 1299.15 3066.52 1298.25 3068.27 1297.59 3070.02 1296.92 3071.96 1296.59 3074.08 1296.59Z" fill-rule="evenodd"/><text fill="#000000" fill-opacity="0" font-family="Arial,Arial_MSFontService,sans-serif" font-size="34.626" x="3006.12" y="1326.89">ğ‘€ğº2ğ¿</text><rect x="1520.5" y="923.5" width="198" height="773" stroke="#000000" stroke-width="6.875" stroke-miterlimit="8" fill="#FFE699"/><text font-family="Times New Roman,Times New Roman_MSFontService,sans-serif" font-weight="400" font-size="64" transform="matrix(1 0 0 1 1526.54 1179)">Transi<tspan font-size="64" x="163.854" y="0">-</tspan><tspan font-size="64" x="42.6937" y="77">tion</tspan><tspan font-size="64" x="19.4791" y="154">Level</tspan><tspan font-size="64" x="15.7666" y="231">Block</tspan></text><rect x="1841.5" y="923.5" width="201" height="770" stroke="#000000" stroke-width="6.875" stroke-miterlimit="8" fill="#FFE699"/><text font-family="Times New Roman,Times New Roman_MSFontService,sans-serif" font-weight="400" font-size="64" transform="matrix(1 0 0 1 1850.81 1177)">Aggre<tspan font-size="64" x="160.417" y="0">-</tspan><tspan font-size="64" x="10.5875" y="77">gation</tspan><tspan font-size="64" x="17.7604" y="154">Level</tspan><tspan font-size="64" x="14.025" y="231">Block</tspan></text><path d="M1476.95 1189.43 1477.65 1189.43C1481.85 1189.52 1485 1190.75 1487.09 1193.13 1489.17 1195.51 1490.21 1199.29 1490.21 1204.47 1490.21 1206.38 1490 1208.56 1489.58 1210.99 1489.16 1213.43 1488.95 1215.06 1488.95 1215.88 1488.95 1217.47 1489.38 1218.77 1490.23 1219.76 1491.08 1220.75 1492.36 1221.29 1494.08 1221.36L1494.08 1223.56C1492.36 1223.63 1491.08 1224.16 1490.23 1225.14 1489.38 1226.13 1488.95 1227.41 1488.95 1228.98 1488.95 1229.81 1489.16 1231.42 1489.58 1233.83 1490 1236.24 1490.21 1238.39 1490.21 1240.29 1490.21 1245.66 1489.17 1249.52 1487.09 1251.88 1485 1254.23 1481.85 1255.45 1477.65 1255.54L1476.95 1255.54 1476.95 1253.5 1477.35 1253.5C1479.95 1253.5 1481.98 1252.63 1483.45 1250.9 1484.91 1249.16 1485.65 1245.97 1485.65 1241.31 1485.65 1239.72 1485.47 1237.73 1485.11 1235.36 1484.75 1232.99 1484.57 1231.29 1484.57 1230.27 1484.57 1228.32 1485.02 1226.72 1485.92 1225.47 1486.81 1224.21 1487.88 1223.29 1489.11 1222.7L1489.11 1222.22C1487.88 1221.61 1486.81 1220.67 1485.92 1219.41 1485.02 1218.15 1484.57 1216.53 1484.57 1214.56 1484.57 1213.52 1484.75 1211.81 1485.11 1209.42 1485.47 1207.03 1485.65 1205.02 1485.65 1203.39 1485.65 1198.95 1484.91 1195.85 1483.45 1194.1 1481.98 1192.34 1479.95 1191.47 1477.35 1191.47L1476.95 1191.47ZM1426.7 1189.43 1427.39 1189.43 1427.39 1191.47 1426.99 1191.47C1424.4 1191.47 1422.36 1192.34 1420.9 1194.1 1419.43 1195.85 1418.69 1198.95 1418.69 1203.39 1418.69 1205.02 1418.87 1207.03 1419.23 1209.42 1419.59 1211.81 1419.77 1213.52 1419.77 1214.56 1419.77 1216.53 1419.32 1218.15 1418.42 1219.41 1417.53 1220.67 1416.46 1221.61 1415.23 1222.22L1415.23 1222.7C1416.46 1223.29 1417.53 1224.21 1418.42 1225.47 1419.32 1226.72 1419.77 1228.32 1419.77 1230.27 1419.77 1231.29 1419.59 1232.99 1419.23 1235.36 1418.87 1237.73 1418.69 1239.72 1418.69 1241.31 1418.69 1245.97 1419.43 1249.16 1420.9 1250.9 1422.36 1252.63 1424.4 1253.5 1426.99 1253.5L1427.39 1253.5 1427.39 1255.54 1426.7 1255.54C1422.49 1255.45 1419.34 1254.23 1417.26 1251.88 1415.17 1249.52 1414.13 1245.66 1414.13 1240.29 1414.13 1238.39 1414.34 1236.24 1414.76 1233.83 1415.18 1231.42 1415.39 1229.81 1415.39 1228.98 1415.39 1227.41 1414.96 1226.13 1414.11 1225.14 1413.26 1224.16 1411.98 1223.63 1410.26 1223.56L1410.26 1221.36C1411.98 1221.29 1413.26 1220.75 1414.11 1219.76 1414.96 1218.77 1415.39 1217.47 1415.39 1215.88 1415.39 1215.06 1415.18 1213.43 1414.76 1210.99 1414.34 1208.56 1414.13 1206.38 1414.13 1204.47 1414.13 1199.29 1415.17 1195.51 1417.26 1193.13 1419.34 1190.75 1422.49 1189.52 1426.7 1189.43Z" fill-rule="evenodd"/><path d="M1439.74 1212.52 1453.81 1212.52 1453.01 1216.07 1444.6 1216.07 1441.57 1229.52C1441.17 1231.28 1440.98 1232.6 1440.98 1233.5 1440.98 1234.21 1441.09 1234.73 1441.33 1235.05 1441.56 1235.38 1441.93 1235.54 1442.43 1235.54 1443.04 1235.54 1443.7 1235.29 1444.41 1234.78 1445.13 1234.28 1445.94 1233.49 1446.86 1232.39L1448.42 1233.84C1446.88 1235.56 1445.5 1236.79 1444.29 1237.52 1443.08 1238.26 1441.84 1238.63 1440.57 1238.63 1439.3 1238.63 1438.3 1238.2 1437.57 1237.36 1436.83 1236.52 1436.46 1235.43 1436.46 1234.09 1436.46 1232.89 1436.72 1231.15 1437.22 1228.88L1437.59 1227.18C1437.88 1225.88 1438.3 1224.16 1438.87 1222.03 1439.43 1219.9 1440 1217.99 1440.57 1216.31L1440.44 1216.07 1438.13 1216.07C1436.95 1216.07 1436.04 1216.16 1435.4 1216.35 1434.77 1216.54 1434.15 1216.86 1433.54 1217.32 1432.93 1217.77 1432.29 1218.43 1431.63 1219.29L1429.94 1217.87C1430.91 1216.67 1431.75 1215.73 1432.48 1215.05 1433.2 1214.37 1433.9 1213.85 1434.56 1213.5 1435.22 1213.15 1435.94 1212.9 1436.71 1212.75 1437.48 1212.6 1438.49 1212.52 1439.74 1212.52Z" fill-rule="evenodd"/><text fill="#000000" fill-opacity="0" font-family="Arial,Arial_MSFontService,sans-serif" font-size="26.1035" x="1429.94" y="1235.36">ğœ</text><path d="M1462.61 1225.76 1465.65 1225.76 1464.54 1230.72 1471.18 1230.72 1470.73 1232.89 1464.11 1232.89 1462.12 1241.07C1461.99 1241.62 1461.88 1242.11 1461.79 1242.54 1461.71 1242.98 1461.64 1243.37 1461.59 1243.73 1461.54 1244.08 1461.5 1244.4 1461.48 1244.68 1461.46 1244.97 1461.45 1245.24 1461.45 1245.48 1461.45 1246.27 1461.62 1246.88 1461.94 1247.32 1462.27 1247.76 1462.8 1247.98 1463.54 1247.98 1464.17 1247.98 1464.83 1247.75 1465.54 1247.29 1466.24 1246.83 1467.04 1246.1 1467.94 1245.11L1469.29 1246.48C1468.62 1247.22 1467.99 1247.85 1467.39 1248.37 1466.79 1248.9 1466.21 1249.32 1465.63 1249.65 1465.06 1249.99 1464.49 1250.23 1463.93 1250.38 1463.37 1250.53 1462.8 1250.6 1462.21 1250.6 1460.67 1250.6 1459.51 1250.24 1458.75 1249.51 1457.99 1248.78 1457.61 1247.7 1457.61 1246.28 1457.61 1245.8 1457.64 1245.27 1457.71 1244.69 1457.78 1244.11 1457.89 1243.55 1458.02 1243L1460.34 1232.89 1456.98 1232.89 1457.37 1231.38C1458.15 1231.38 1458.76 1231.31 1459.2 1231.16 1459.63 1231.01 1460 1230.8 1460.3 1230.54 1460.5 1230.36 1460.68 1230.14 1460.87 1229.87 1461.05 1229.6 1461.23 1229.28 1461.41 1228.9 1461.6 1228.52 1461.78 1228.08 1461.97 1227.56 1462.16 1227.05 1462.37 1226.45 1462.61 1225.76Z" fill-rule="evenodd"/><text fill="#000000" fill-opacity="0" font-family="Arial,Arial_MSFontService,sans-serif" font-size="24.8438" x="1456.98" y="1247.5">ğ‘¡</text><path d="M1466.65 1197.5 1467.61 1197.5 1464.72 1210.51C1464.54 1211.28 1464.41 1211.89 1464.34 1212.35 1464.27 1212.8 1464.23 1213.21 1464.23 1213.58 1464.23 1214.07 1464.33 1214.43 1464.53 1214.65 1464.74 1214.87 1465.04 1214.98 1465.44 1214.98 1465.68 1214.98 1465.91 1214.94 1466.15 1214.85 1466.38 1214.76 1466.63 1214.61 1466.9 1214.42 1467.16 1214.22 1467.46 1213.97 1467.78 1213.67 1468.09 1213.36 1468.45 1212.99 1468.84 1212.56L1470.17 1213.85C1469.49 1214.54 1468.88 1215.12 1468.32 1215.6 1467.77 1216.07 1467.25 1216.46 1466.75 1216.76 1466.26 1217.06 1465.77 1217.28 1465.3 1217.41 1464.82 1217.54 1464.32 1217.6 1463.78 1217.6 1463.29 1217.6 1462.84 1217.51 1462.44 1217.33 1462.05 1217.15 1461.7 1216.89 1461.42 1216.58 1461.13 1216.26 1460.91 1215.88 1460.75 1215.43 1460.6 1214.99 1460.52 1214.5 1460.52 1213.97 1460.52 1213.54 1460.57 1213.01 1460.68 1212.37 1460.78 1211.73 1460.91 1211.04 1461.08 1210.29 1461.24 1209.54 1461.42 1208.75 1461.61 1207.93 1461.81 1207.11 1462 1206.3 1462.19 1205.49 1462.38 1204.68 1462.55 1203.91 1462.7 1203.16 1462.85 1202.41 1462.95 1201.73 1463.02 1201.12 1463.05 1201.01 1463.06 1200.91 1463.06 1200.81 1463.06 1200.72 1463.06 1200.63 1463.06 1200.55 1463.03 1200.04 1462.85 1199.67 1462.52 1199.44 1462.19 1199.2 1461.6 1199.07 1460.75 1199.05L1460.99 1197.72ZM1465.52 1189.63 1469.43 1189.63 1468.47 1193.83 1464.6 1193.83Z" fill-rule="evenodd"/><text fill="#000000" fill-opacity="0" font-family="Arial,Arial_MSFontService,sans-serif" font-size="27.9688" x="1460.52" y="1214.11">ğ‘–</text><path d="M1803.49 1190.58 1804.19 1190.58C1808.4 1190.67 1811.55 1191.9 1813.63 1194.28 1815.72 1196.66 1816.76 1200.44 1816.76 1205.61 1816.76 1207.53 1816.55 1209.71 1816.13 1212.14 1815.71 1214.58 1815.5 1216.2 1815.5 1217.03 1815.5 1218.62 1815.92 1219.92 1816.77 1220.91 1817.62 1221.9 1818.91 1222.44 1820.63 1222.51L1820.63 1224.71C1818.91 1224.78 1817.62 1225.31 1816.77 1226.29 1815.92 1227.28 1815.5 1228.56 1815.5 1230.13 1815.5 1230.96 1815.71 1232.57 1816.13 1234.98 1816.55 1237.39 1816.76 1239.54 1816.76 1241.44 1816.76 1246.81 1815.72 1250.67 1813.63 1253.03 1811.55 1255.38 1808.4 1256.6 1804.19 1256.69L1803.49 1256.69 1803.49 1254.65 1803.9 1254.65C1806.49 1254.65 1808.53 1253.78 1809.99 1252.05 1811.46 1250.31 1812.2 1247.12 1812.2 1242.46 1812.2 1240.87 1812.02 1238.88 1811.66 1236.51 1811.3 1234.14 1811.12 1232.44 1811.12 1231.42 1811.12 1229.47 1811.57 1227.87 1812.46 1226.62 1813.36 1225.36 1814.42 1224.44 1815.66 1223.85L1815.66 1223.37C1814.42 1222.76 1813.36 1221.82 1812.46 1220.56 1811.57 1219.3 1811.12 1217.68 1811.12 1215.71 1811.12 1214.67 1811.3 1212.96 1811.66 1210.57 1812.02 1208.18 1812.2 1206.17 1812.2 1204.54 1812.2 1200.1 1811.46 1197 1809.99 1195.25 1808.53 1193.49 1806.49 1192.62 1803.9 1192.62L1803.49 1192.62ZM1749.35 1190.58 1750.05 1190.58 1750.05 1192.62 1749.64 1192.62C1747.05 1192.62 1745.01 1193.49 1743.55 1195.25 1742.08 1197 1741.34 1200.1 1741.34 1204.54 1741.34 1206.17 1741.52 1208.18 1741.88 1210.57 1742.24 1212.96 1742.42 1214.67 1742.42 1215.71 1742.42 1217.68 1741.97 1219.3 1741.08 1220.56 1740.18 1221.82 1739.12 1222.76 1737.88 1223.37L1737.88 1223.85C1739.12 1224.44 1740.18 1225.36 1741.08 1226.62 1741.97 1227.87 1742.42 1229.47 1742.42 1231.42 1742.42 1232.44 1742.24 1234.14 1741.88 1236.51 1741.52 1238.88 1741.34 1240.87 1741.34 1242.46 1741.34 1247.12 1742.08 1250.31 1743.55 1252.05 1745.01 1253.78 1747.05 1254.65 1749.64 1254.65L1750.05 1254.65 1750.05 1256.69 1749.35 1256.69C1745.14 1256.6 1741.99 1255.38 1739.91 1253.03 1737.82 1250.67 1736.78 1246.81 1736.78 1241.44 1736.78 1239.54 1736.99 1237.39 1737.41 1234.98 1737.83 1232.57 1738.04 1230.96 1738.04 1230.13 1738.04 1228.56 1737.62 1227.28 1736.77 1226.29 1735.91 1225.31 1734.63 1224.78 1732.91 1224.71L1732.91 1222.51C1734.63 1222.44 1735.91 1221.9 1736.77 1220.91 1737.62 1219.92 1738.04 1218.62 1738.04 1217.03 1738.04 1216.2 1737.83 1214.58 1737.41 1212.14 1736.99 1209.71 1736.78 1207.53 1736.78 1205.61 1736.78 1200.44 1737.82 1196.66 1739.91 1194.28 1741.99 1191.9 1745.14 1190.67 1749.35 1190.58Z" fill-rule="evenodd"/><path d="M1762.26 1213.21C1762.81 1213.21 1763.3 1213.28 1763.72 1213.4 1764.14 1213.53 1764.51 1213.72 1764.84 1213.98 1765.16 1214.24 1765.44 1214.58 1765.7 1214.99 1765.95 1215.4 1766.19 1215.96 1766.42 1216.67 1766.65 1217.37 1766.87 1218.25 1767.08 1219.3 1767.28 1220.35 1767.47 1221.43 1767.63 1222.56L1767.9 1222.56C1769.62 1220.14 1770.92 1218.38 1771.8 1217.26 1772.69 1216.14 1773.44 1215.31 1774.05 1214.76 1774.66 1214.21 1775.24 1213.83 1775.81 1213.6 1776.37 1213.38 1777.12 1213.27 1778.05 1213.27 1778.89 1213.27 1779.58 1213.38 1780.12 1213.59L1779.04 1218.45 1777.16 1218.45C1777.06 1217.7 1776.74 1217.32 1776.22 1217.32 1776.06 1217.32 1775.89 1217.35 1775.71 1217.4 1775.53 1217.46 1775.31 1217.57 1775.05 1217.75 1774.79 1217.93 1774.41 1218.28 1773.91 1218.8 1773.41 1219.32 1772.85 1219.96 1772.22 1220.71 1771.59 1221.46 1770.95 1222.25 1770.29 1223.07L1768.46 1225.35C1768.78 1227.07 1769.09 1228.56 1769.37 1229.81 1769.66 1231.06 1769.92 1232.11 1770.14 1232.94 1770.36 1233.77 1770.56 1234.43 1770.73 1234.91 1770.9 1235.4 1771.08 1235.76 1771.28 1236 1771.48 1236.24 1771.68 1236.41 1771.89 1236.51 1772.09 1236.61 1772.33 1236.66 1772.6 1236.66 1773.08 1236.66 1773.55 1236.47 1774.01 1236.1 1774.46 1235.72 1775.12 1234.87 1775.98 1233.54L1777.73 1234.7C1776.47 1236.56 1775.34 1237.87 1774.33 1238.63 1773.32 1239.39 1772.11 1239.78 1770.72 1239.78 1769.95 1239.78 1769.29 1239.64 1768.76 1239.36 1768.22 1239.08 1767.75 1238.64 1767.36 1238.03 1766.97 1237.42 1766.62 1236.47 1766.31 1235.18 1765.76 1232.89 1765.42 1231.14 1765.29 1229.92L1765.02 1229.92C1763.13 1232.59 1761.72 1234.5 1760.79 1235.67 1759.87 1236.83 1759.11 1237.69 1758.51 1238.24 1757.91 1238.8 1757.33 1239.19 1756.77 1239.41 1756.2 1239.64 1755.45 1239.75 1754.52 1239.75 1753.68 1239.75 1752.99 1239.64 1752.46 1239.43L1753.53 1234.57 1755.41 1234.57C1755.52 1235.32 1755.83 1235.69 1756.35 1235.69 1756.6 1235.69 1756.86 1235.63 1757.14 1235.49 1757.42 1235.36 1757.82 1235.04 1758.34 1234.52 1758.86 1234.01 1759.57 1233.21 1760.49 1232.12 1761.4 1231.03 1762.72 1229.39 1764.46 1227.21 1764.19 1225.79 1763.91 1224.43 1763.63 1223.12 1763.34 1221.82 1763.05 1220.6 1762.74 1219.47 1762.44 1218.34 1762.19 1217.61 1761.99 1217.26 1761.79 1216.91 1761.58 1216.67 1761.36 1216.53 1761.13 1216.4 1760.85 1216.33 1760.51 1216.33 1760.14 1216.33 1759.8 1216.42 1759.49 1216.59 1759.19 1216.76 1758.86 1217.05 1758.5 1217.47 1758.14 1217.89 1757.67 1218.55 1757.07 1219.45L1755.33 1218.29C1756.46 1216.59 1757.54 1215.32 1758.58 1214.48 1759.62 1213.64 1760.84 1213.21 1762.26 1213.21Z" fill-rule="evenodd"/><text fill="#000000" fill-opacity="0" font-family="Arial,Arial_MSFontService,sans-serif" font-size="26.5601" x="1752.46" y="1236.46">ğ‘¥</text><path d="M1788.74 1226.91 1791.79 1226.91 1790.67 1231.87 1797.31 1231.87 1796.86 1234.04 1790.24 1234.04 1788.25 1242.22C1788.12 1242.77 1788.01 1243.26 1787.93 1243.69 1787.84 1244.13 1787.78 1244.52 1787.72 1244.88 1787.67 1245.23 1787.64 1245.55 1787.62 1245.83 1787.6 1246.12 1787.59 1246.39 1787.59 1246.63 1787.59 1247.42 1787.75 1248.03 1788.08 1248.47 1788.4 1248.91 1788.94 1249.13 1789.68 1249.13 1790.3 1249.13 1790.97 1248.9 1791.67 1248.44 1792.37 1247.98 1793.17 1247.25 1794.07 1246.26L1795.42 1247.63C1794.76 1248.37 1794.12 1249 1793.53 1249.52 1792.93 1250.05 1792.34 1250.47 1791.77 1250.8 1791.19 1251.14 1790.63 1251.38 1790.07 1251.53 1789.51 1251.68 1788.94 1251.75 1788.35 1251.75 1786.8 1251.75 1785.64 1251.39 1784.88 1250.66 1784.12 1249.93 1783.74 1248.85 1783.74 1247.43 1783.74 1246.95 1783.78 1246.42 1783.85 1245.84 1783.92 1245.26 1784.02 1244.7 1784.15 1244.15L1786.47 1234.04 1783.11 1234.04 1783.51 1232.53C1784.29 1232.53 1784.9 1232.46 1785.33 1232.31 1785.77 1232.16 1786.14 1231.95 1786.44 1231.69 1786.63 1231.51 1786.82 1231.29 1787 1231.02 1787.18 1230.75 1787.37 1230.43 1787.55 1230.05 1787.73 1229.67 1787.92 1229.23 1788.11 1228.71 1788.29 1228.2 1788.51 1227.6 1788.74 1226.91Z" fill-rule="evenodd"/><text fill="#000000" fill-opacity="0" font-family="Arial,Arial_MSFontService,sans-serif" font-size="24.8438" x="1783.11" y="1248.65">ğ‘¡</text><path d="M1793.27 1198.65 1794.23 1198.65 1791.33 1211.66C1791.15 1212.43 1791.03 1213.04 1790.95 1213.5 1790.88 1213.95 1790.85 1214.36 1790.85 1214.73 1790.85 1215.22 1790.95 1215.58 1791.15 1215.8 1791.35 1216.02 1791.65 1216.13 1792.06 1216.13 1792.29 1216.13 1792.53 1216.09 1792.76 1216 1793 1215.91 1793.25 1215.76 1793.51 1215.57 1793.78 1215.37 1794.07 1215.12 1794.39 1214.82 1794.71 1214.51 1795.07 1214.14 1795.46 1213.71L1796.78 1215C1796.11 1215.69 1795.49 1216.27 1794.94 1216.75 1794.39 1217.22 1793.86 1217.61 1793.37 1217.91 1792.87 1218.21 1792.39 1218.43 1791.91 1218.56 1791.44 1218.69 1790.93 1218.75 1790.4 1218.75 1789.9 1218.75 1789.46 1218.66 1789.06 1218.48 1788.66 1218.3 1788.32 1218.04 1788.03 1217.73 1787.75 1217.41 1787.53 1217.03 1787.37 1216.58 1787.21 1216.14 1787.14 1215.65 1787.14 1215.12 1787.14 1214.69 1787.19 1214.15 1787.29 1213.52 1787.4 1212.88 1787.53 1212.19 1787.69 1211.44 1787.86 1210.69 1788.03 1209.9 1788.23 1209.08 1788.42 1208.26 1788.62 1207.45 1788.81 1206.64 1788.99 1205.83 1789.16 1205.06 1789.31 1204.31 1789.46 1203.56 1789.57 1202.88 1789.64 1202.27 1789.66 1202.16 1789.67 1202.06 1789.67 1201.96 1789.67 1201.87 1789.67 1201.78 1789.67 1201.7 1789.65 1201.19 1789.47 1200.82 1789.14 1200.59 1788.81 1200.35 1788.22 1200.22 1787.37 1200.2L1787.6 1198.87ZM1792.14 1190.78 1796.04 1190.78 1795.08 1194.98 1791.22 1194.98Z" fill-rule="evenodd"/><text fill="#000000" fill-opacity="0" font-family="Arial,Arial_MSFontService,sans-serif" font-size="27.9688" x="1787.14" y="1215.26">ğ‘–</text><path d="M2067.14 1013.19 2067.84 1013.19 2067.84 1015.23 2067.44 1015.23C2064.84 1015.23 2062.81 1015.9 2061.34 1017.26 2059.87 1018.61 2059.14 1020.83 2059.14 1023.93 2059.14 1025.18 2059.32 1026.73 2059.67 1028.58 2060.03 1030.42 2060.21 1031.74 2060.21 1032.52 2060.21 1034.05 2059.76 1035.29 2058.87 1036.27 2057.97 1037.25 2056.91 1037.97 2055.67 1038.43L2055.67 1038.91C2056.91 1039.38 2057.97 1040.1 2058.87 1041.08 2059.76 1042.05 2060.21 1043.3 2060.21 1044.82 2060.21 1045.61 2060.03 1046.93 2059.67 1048.77 2059.32 1050.61 2059.14 1052.16 2059.14 1053.42 2059.14 1056.68 2059.87 1058.98 2061.34 1060.33 2062.81 1061.68 2064.84 1062.36 2067.44 1062.36L2067.84 1062.36 2067.84 1064.4 2067.14 1064.4C2062.93 1064.33 2059.79 1063.37 2057.7 1061.51 2055.61 1059.66 2054.57 1056.8 2054.57 1052.93 2054.57 1051.45 2054.78 1049.76 2055.2 1047.86 2055.62 1045.96 2055.83 1044.69 2055.83 1044.04 2055.83 1042.81 2055.41 1041.8 2054.56 1041.02 2053.71 1040.24 2052.42 1039.83 2050.7 1039.77L2050.7 1037.57C2052.42 1037.52 2053.71 1037.1 2054.56 1036.32 2055.41 1035.54 2055.83 1034.54 2055.83 1033.3 2055.83 1032.66 2055.62 1031.39 2055.2 1029.49 2054.78 1027.59 2054.57 1025.9 2054.57 1024.41 2054.57 1020.71 2055.61 1017.93 2057.7 1016.07 2059.79 1014.22 2062.93 1013.26 2067.14 1013.19Z" fill-rule="evenodd"/><text fill="#000000" fill-opacity="0" font-family="Arial,Arial_MSFontService,sans-serif" font-size="51.2134" x="2050.7" y="1058">{</text><path d="M2079.96 1025.97C2080.51 1025.97 2081 1026.03 2081.42 1026.16 2081.84 1026.28 2082.22 1026.48 2082.54 1026.74 2082.86 1027 2083.15 1027.33 2083.4 1027.74 2083.65 1028.15 2083.89 1028.71 2084.12 1029.42 2084.35 1030.13 2084.57 1031.01 2084.78 1032.05 2084.99 1033.1 2085.17 1034.19 2085.33 1035.32L2085.6 1035.32C2087.32 1032.9 2088.62 1031.13 2089.51 1030.01 2090.39 1028.89 2091.14 1028.06 2091.75 1027.51 2092.36 1026.97 2092.94 1026.58 2093.51 1026.36 2094.07 1026.14 2094.82 1026.02 2095.75 1026.02 2096.59 1026.02 2097.28 1026.13 2097.82 1026.35L2096.74 1031.21 2094.86 1031.21C2094.76 1030.46 2094.44 1030.08 2093.92 1030.08 2093.76 1030.08 2093.59 1030.11 2093.41 1030.16 2093.23 1030.21 2093.02 1030.33 2092.76 1030.51 2092.5 1030.69 2092.12 1031.04 2091.61 1031.56 2091.11 1032.08 2090.55 1032.71 2089.92 1033.46 2089.3 1034.22 2088.65 1035 2087.99 1035.83L2086.16 1038.11C2086.49 1039.83 2086.79 1041.31 2087.08 1042.57 2087.36 1043.82 2087.62 1044.86 2087.84 1045.7 2088.07 1046.53 2088.26 1047.19 2088.43 1047.67 2088.6 1048.15 2088.79 1048.52 2088.98 1048.76 2089.18 1049 2089.38 1049.17 2089.59 1049.27 2089.79 1049.37 2090.03 1049.42 2090.3 1049.42 2090.78 1049.42 2091.25 1049.23 2091.71 1048.85 2092.17 1048.48 2092.82 1047.62 2093.68 1046.3L2095.43 1047.45C2094.17 1049.32 2093.04 1050.63 2092.03 1051.39 2091.02 1052.15 2089.82 1052.53 2088.42 1052.53 2087.65 1052.53 2087 1052.39 2086.46 1052.11 2085.92 1051.84 2085.46 1051.39 2085.06 1050.78 2084.67 1050.18 2084.32 1049.23 2084.01 1047.94 2083.46 1045.65 2083.12 1043.89 2082.99 1042.67L2082.73 1042.67C2080.83 1045.34 2079.42 1047.26 2078.5 1048.42 2077.57 1049.59 2076.81 1050.44 2076.21 1051 2075.61 1051.55 2075.03 1051.94 2074.47 1052.17 2073.9 1052.39 2073.16 1052.5 2072.22 1052.5 2071.38 1052.5 2070.69 1052.4 2070.16 1052.18L2071.23 1047.32 2073.11 1047.32C2073.22 1048.07 2073.53 1048.45 2074.05 1048.45 2074.3 1048.45 2074.57 1048.38 2074.84 1048.25 2075.12 1048.11 2075.52 1047.79 2076.04 1047.28 2076.56 1046.77 2077.27 1045.97 2078.19 1044.88 2079.1 1043.78 2080.42 1042.15 2082.16 1039.96 2081.89 1038.55 2081.62 1037.19 2081.33 1035.88 2081.04 1034.57 2080.75 1033.36 2080.44 1032.23 2080.14 1031.1 2079.89 1030.36 2079.69 1030.01 2079.49 1029.66 2079.28 1029.42 2079.06 1029.29 2078.84 1029.15 2078.55 1029.09 2078.21 1029.09 2077.84 1029.09 2077.5 1029.17 2077.19 1029.34 2076.89 1029.51 2076.56 1029.81 2076.2 1030.23 2075.84 1030.65 2075.37 1031.31 2074.78 1032.2L2073.03 1031.05C2074.16 1029.35 2075.24 1028.07 2076.28 1027.23 2077.32 1026.39 2078.54 1025.97 2079.96 1025.97Z" fill-rule="evenodd"/><text fill="#000000" fill-opacity="0" font-family="Arial,Arial_MSFontService,sans-serif" font-size="26.5601" x="2070.16" y="1049.21">ğ‘¥</text><path d="M2110.97 1012.21 2111.93 1012.21 2109.04 1025.22C2108.85 1025.99 2108.73 1026.6 2108.66 1027.05 2108.58 1027.51 2108.55 1027.92 2108.55 1028.29 2108.55 1028.78 2108.65 1029.14 2108.85 1029.36 2109.05 1029.58 2109.36 1029.69 2109.76 1029.69 2109.99 1029.69 2110.23 1029.65 2110.46 1029.55 2110.7 1029.46 2110.95 1029.32 2111.21 1029.13 2111.48 1028.93 2111.77 1028.68 2112.09 1028.37 2112.41 1028.07 2112.77 1027.7 2113.16 1027.27L2114.49 1028.56C2113.81 1029.25 2113.19 1029.83 2112.64 1030.31 2112.09 1030.78 2111.56 1031.17 2111.07 1031.47 2110.57 1031.77 2110.09 1031.98 2109.61 1032.11 2109.14 1032.24 2108.63 1032.31 2108.1 1032.31 2107.6 1032.31 2107.16 1032.22 2106.76 1032.04 2106.36 1031.85 2106.02 1031.6 2105.74 1031.28 2105.45 1030.96 2105.23 1030.58 2105.07 1030.14 2104.92 1029.7 2104.84 1029.21 2104.84 1028.68 2104.84 1028.25 2104.89 1027.71 2104.99 1027.07 2105.1 1026.44 2105.23 1025.74 2105.39 1024.99 2105.56 1024.25 2105.74 1023.46 2105.93 1022.64 2106.13 1021.82 2106.32 1021.01 2106.51 1020.2 2106.7 1019.39 2106.87 1018.61 2107.01 1017.87 2107.16 1017.12 2107.27 1016.44 2107.34 1015.82 2107.36 1015.72 2107.38 1015.62 2107.38 1015.52 2107.38 1015.42 2107.38 1015.34 2107.38 1015.26 2107.35 1014.75 2107.17 1014.38 2106.84 1014.14 2106.51 1013.91 2105.92 1013.78 2105.07 1013.75L2105.31 1012.43ZM2109.84 1004.34 2113.74 1004.34 2112.79 1008.54 2108.92 1008.54Z" fill-rule="evenodd"/><text fill="#000000" fill-opacity="0" font-family="Arial,Arial_MSFontService,sans-serif" font-size="27.9688" x="2104.84" y="1028.81">ğ‘–</text><path d="M2121.2 1013.19 2121.89 1013.19C2126.1 1013.26 2129.25 1014.22 2131.33 1016.07 2133.42 1017.93 2134.46 1020.72 2134.46 1024.44 2134.46 1025.93 2134.25 1027.62 2133.83 1029.52 2133.41 1031.41 2133.2 1032.68 2133.2 1033.33 2133.2 1034.56 2133.63 1035.57 2134.48 1036.35 2135.33 1037.13 2136.61 1037.55 2138.33 1037.6L2138.33 1039.8C2136.61 1039.85 2135.33 1040.27 2134.48 1041.05 2133.63 1041.83 2133.2 1042.84 2133.2 1044.07 2133.2 1044.72 2133.41 1045.99 2133.83 1047.88 2134.25 1049.78 2134.46 1051.47 2134.46 1052.96 2134.46 1056.81 2133.42 1059.66 2131.33 1061.51 2129.25 1063.37 2126.1 1064.33 2121.89 1064.4L2121.2 1064.4 2121.2 1062.36 2121.6 1062.36C2124.19 1062.36 2126.23 1061.68 2127.69 1060.33 2129.16 1058.98 2129.9 1056.68 2129.9 1053.44 2129.9 1052.19 2129.72 1050.64 2129.36 1048.8 2129 1046.95 2128.82 1045.64 2128.82 1044.85 2128.82 1043.33 2129.27 1042.08 2130.17 1041.1 2131.06 1040.13 2132.13 1039.41 2133.36 1038.94L2133.36 1038.46C2132.13 1037.99 2131.06 1037.27 2130.17 1036.3 2129.27 1035.32 2128.82 1034.07 2128.82 1032.55 2128.82 1031.76 2129 1030.45 2129.36 1028.6 2129.72 1026.76 2129.9 1025.21 2129.9 1023.96 2129.9 1020.84 2129.16 1018.61 2127.69 1017.26 2126.23 1015.9 2124.19 1015.23 2121.6 1015.23L2121.2 1015.23Z" fill-rule="evenodd"/><text fill="#000000" fill-opacity="0" font-family="Arial,Arial_MSFontService,sans-serif" font-size="51.2134" x="2121.2" y="1058">}</text><path d="M2121.19 1446.71 2121.89 1446.71C2126.09 1446.8 2129.24 1448.04 2131.33 1450.42 2133.41 1452.8 2134.45 1456.58 2134.45 1461.75 2134.45 1463.67 2134.24 1465.84 2133.82 1468.28 2133.4 1470.71 2133.19 1472.34 2133.19 1473.17 2133.19 1474.76 2133.62 1476.05 2134.47 1477.05 2135.32 1478.04 2136.6 1478.57 2138.32 1478.64L2138.32 1480.85C2136.6 1480.92 2135.32 1481.45 2134.47 1482.43 2133.62 1483.42 2133.19 1484.7 2133.19 1486.27 2133.19 1487.09 2133.4 1488.71 2133.82 1491.12 2134.24 1493.53 2134.45 1495.68 2134.45 1497.58 2134.45 1502.95 2133.41 1506.81 2131.33 1509.17 2129.24 1511.52 2126.09 1512.74 2121.89 1512.83L2121.19 1512.83 2121.19 1510.79 2121.59 1510.79C2124.19 1510.79 2126.22 1509.92 2127.69 1508.19 2129.16 1506.45 2129.89 1503.25 2129.89 1498.6 2129.89 1497 2129.71 1495.02 2129.35 1492.65 2128.99 1490.28 2128.81 1488.58 2128.81 1487.56 2128.81 1485.61 2129.26 1484.01 2130.16 1482.75 2131.05 1481.5 2132.12 1480.58 2133.35 1479.99L2133.35 1479.5C2132.12 1478.89 2131.05 1477.96 2130.16 1476.7 2129.26 1475.43 2128.81 1473.82 2128.81 1471.85 2128.81 1470.81 2128.99 1469.1 2129.35 1466.71 2129.71 1464.32 2129.89 1462.31 2129.89 1460.68 2129.89 1456.24 2129.16 1453.14 2127.69 1451.39 2126.22 1449.63 2124.19 1448.75 2121.59 1448.75L2121.19 1448.75ZM2067.04 1446.71 2067.74 1446.71 2067.74 1448.75 2067.34 1448.75C2064.74 1448.75 2062.71 1449.63 2061.24 1451.39 2059.77 1453.14 2059.04 1456.24 2059.04 1460.68 2059.04 1462.31 2059.22 1464.32 2059.57 1466.71 2059.93 1469.1 2060.11 1470.81 2060.11 1471.85 2060.11 1473.82 2059.66 1475.43 2058.77 1476.7 2057.87 1477.96 2056.81 1478.89 2055.57 1479.5L2055.57 1479.99C2056.81 1480.58 2057.87 1481.5 2058.77 1482.75 2059.66 1484.01 2060.11 1485.61 2060.11 1487.56 2060.11 1488.58 2059.93 1490.28 2059.57 1492.65 2059.22 1495.02 2059.04 1497 2059.04 1498.6 2059.04 1503.25 2059.77 1506.45 2061.24 1508.19 2062.71 1509.92 2064.74 1510.79 2067.34 1510.79L2067.74 1510.79 2067.74 1512.83 2067.04 1512.83C2062.83 1512.74 2059.69 1511.52 2057.6 1509.17 2055.52 1506.81 2054.47 1502.95 2054.47 1497.58 2054.47 1495.68 2054.68 1493.53 2055.1 1491.12 2055.52 1488.71 2055.73 1487.09 2055.73 1486.27 2055.73 1484.7 2055.31 1483.42 2054.46 1482.43 2053.61 1481.45 2052.32 1480.92 2050.61 1480.85L2050.61 1478.64C2052.32 1478.57 2053.61 1478.04 2054.46 1477.05 2055.31 1476.05 2055.73 1474.76 2055.73 1473.17 2055.73 1472.34 2055.52 1470.71 2055.1 1468.28 2054.68 1465.84 2054.47 1463.67 2054.47 1461.75 2054.47 1456.58 2055.52 1452.8 2057.6 1450.42 2059.69 1448.04 2062.83 1446.8 2067.04 1446.71Z" fill-rule="evenodd"/><path d="M2079.95 1469.35C2080.51 1469.35 2080.99 1469.41 2081.42 1469.54 2081.84 1469.67 2082.21 1469.86 2082.53 1470.12 2082.85 1470.38 2083.14 1470.71 2083.39 1471.12 2083.64 1471.54 2083.88 1472.1 2084.11 1472.8 2084.35 1473.51 2084.57 1474.39 2084.77 1475.43 2084.98 1476.48 2085.16 1477.57 2085.32 1478.7L2085.59 1478.7C2087.31 1476.28 2088.61 1474.51 2089.5 1473.39 2090.38 1472.27 2091.13 1471.44 2091.74 1470.9 2092.35 1470.35 2092.94 1469.97 2093.5 1469.74 2094.06 1469.52 2094.81 1469.41 2095.74 1469.41 2096.58 1469.41 2097.27 1469.51 2097.81 1469.73L2096.74 1474.59 2094.86 1474.59C2094.75 1473.84 2094.44 1473.46 2093.92 1473.46 2093.76 1473.46 2093.58 1473.49 2093.41 1473.54 2093.23 1473.6 2093.01 1473.71 2092.75 1473.89 2092.49 1474.07 2092.11 1474.42 2091.61 1474.94 2091.11 1475.46 2090.54 1476.09 2089.91 1476.84 2089.29 1477.6 2088.64 1478.38 2087.98 1479.21L2086.16 1481.49C2086.48 1483.21 2086.78 1484.7 2087.07 1485.95 2087.35 1487.2 2087.61 1488.24 2087.83 1489.08 2088.06 1489.91 2088.25 1490.57 2088.42 1491.05 2088.59 1491.53 2088.78 1491.9 2088.97 1492.14 2089.17 1492.38 2089.37 1492.55 2089.58 1492.65 2089.78 1492.75 2090.02 1492.8 2090.29 1492.8 2090.77 1492.8 2091.24 1492.61 2091.7 1492.23 2092.16 1491.86 2092.82 1491.01 2093.67 1489.68L2095.42 1490.84C2094.17 1492.7 2093.03 1494.01 2092.02 1494.77 2091.01 1495.53 2089.81 1495.91 2088.41 1495.91 2087.64 1495.91 2086.99 1495.77 2086.45 1495.5 2085.91 1495.22 2085.45 1494.78 2085.05 1494.17 2084.66 1493.56 2084.31 1492.61 2084.01 1491.32 2083.45 1489.03 2083.11 1487.27 2082.99 1486.06L2082.72 1486.06C2080.82 1488.72 2079.41 1490.64 2078.49 1491.8 2077.57 1492.97 2076.8 1493.83 2076.21 1494.38 2075.61 1494.94 2075.02 1495.33 2074.46 1495.55 2073.9 1495.77 2073.15 1495.89 2072.22 1495.89 2071.38 1495.89 2070.69 1495.78 2070.15 1495.56L2071.22 1490.7 2073.1 1490.7C2073.21 1491.45 2073.52 1491.83 2074.04 1491.83 2074.29 1491.83 2074.56 1491.76 2074.84 1491.63 2075.11 1491.49 2075.51 1491.17 2076.03 1490.66 2076.55 1490.15 2077.27 1489.35 2078.18 1488.26 2079.09 1487.17 2080.42 1485.53 2082.15 1483.34 2081.89 1481.93 2081.61 1480.57 2081.32 1479.26 2081.03 1477.95 2080.74 1476.74 2080.43 1475.61 2080.13 1474.48 2079.88 1473.74 2079.68 1473.39 2079.49 1473.04 2079.28 1472.8 2079.05 1472.67 2078.83 1472.53 2078.55 1472.47 2078.21 1472.47 2077.83 1472.47 2077.49 1472.55 2077.19 1472.72 2076.88 1472.89 2076.55 1473.19 2076.19 1473.61 2075.83 1474.03 2075.36 1474.69 2074.77 1475.58L2073.02 1474.43C2074.15 1472.73 2075.23 1471.46 2076.27 1470.61 2077.31 1469.77 2078.54 1469.35 2079.95 1469.35Z" fill-rule="evenodd"/><text fill="#000000" fill-opacity="0" font-family="Arial,Arial_MSFontService,sans-serif" font-size="26.5601" x="2070.15" y="1492.59">ğ‘¥</text><path d="M2110.96 1455.59 2111.92 1455.59 2109.03 1468.6C2108.85 1469.37 2108.72 1469.98 2108.65 1470.44 2108.58 1470.89 2108.54 1471.3 2108.54 1471.67 2108.54 1472.16 2108.64 1472.52 2108.84 1472.74 2109.04 1472.96 2109.35 1473.07 2109.75 1473.07 2109.99 1473.07 2110.22 1473.03 2110.45 1472.94 2110.69 1472.85 2110.94 1472.7 2111.21 1472.51 2111.47 1472.31 2111.77 1472.06 2112.09 1471.75 2112.4 1471.45 2112.76 1471.08 2113.15 1470.65L2114.48 1471.94C2113.8 1472.63 2113.19 1473.21 2112.63 1473.69 2112.08 1474.16 2111.55 1474.55 2111.06 1474.85 2110.56 1475.15 2110.08 1475.36 2109.6 1475.5 2109.13 1475.63 2108.62 1475.69 2108.09 1475.69 2107.6 1475.69 2107.15 1475.6 2106.75 1475.42 2106.36 1475.23 2106.01 1474.98 2105.73 1474.67 2105.44 1474.35 2105.22 1473.97 2105.06 1473.52 2104.91 1473.08 2104.83 1472.59 2104.83 1472.06 2104.83 1471.63 2104.88 1471.09 2104.99 1470.46 2105.09 1469.82 2105.22 1469.12 2105.39 1468.38 2105.55 1467.63 2105.73 1466.84 2105.92 1466.02 2106.12 1465.2 2106.31 1464.39 2106.5 1463.58 2106.69 1462.77 2106.86 1462 2107.01 1461.25 2107.16 1460.5 2107.26 1459.82 2107.33 1459.21 2107.36 1459.1 2107.37 1459 2107.37 1458.9 2107.37 1458.81 2107.37 1458.72 2107.37 1458.64 2107.34 1458.13 2107.16 1457.76 2106.83 1457.53 2106.5 1457.29 2105.91 1457.16 2105.06 1457.14L2105.3 1455.81ZM2109.83 1447.72 2113.74 1447.72 2112.78 1451.92 2108.91 1451.92Z" fill-rule="evenodd"/><text fill="#000000" fill-opacity="0" font-family="Arial,Arial_MSFontService,sans-serif" font-size="27.9688" x="2104.83" y="1472.19">ğ‘–</text><path d="M2586.4 1495.08 2587.1 1495.08C2591.3 1495.17 2594.45 1496.4 2596.54 1498.78 2598.62 1501.16 2599.66 1504.94 2599.66 1510.12 2599.66 1512.03 2599.45 1514.21 2599.03 1516.64 2598.61 1519.08 2598.4 1520.71 2598.4 1521.53 2598.4 1523.12 2598.83 1524.42 2599.68 1525.41 2600.53 1526.4 2601.81 1526.94 2603.53 1527.01L2603.53 1529.21C2601.81 1529.28 2600.53 1529.81 2599.68 1530.79 2598.83 1531.78 2598.4 1533.06 2598.4 1534.64 2598.4 1535.46 2598.61 1537.07 2599.03 1539.48 2599.45 1541.89 2599.66 1544.04 2599.66 1545.94 2599.66 1551.31 2598.62 1555.18 2596.54 1557.53 2594.45 1559.88 2591.3 1561.11 2587.1 1561.2L2586.4 1561.2 2586.4 1559.15 2586.8 1559.15C2589.4 1559.15 2591.43 1558.29 2592.9 1556.55 2594.36 1554.81 2595.1 1551.62 2595.1 1546.96 2595.1 1545.37 2594.92 1543.39 2594.56 1541.01 2594.2 1538.64 2594.02 1536.94 2594.02 1535.92 2594.02 1533.97 2594.47 1532.37 2595.37 1531.12 2596.26 1529.86 2597.33 1528.94 2598.56 1528.35L2598.56 1527.87C2597.33 1527.26 2596.26 1526.32 2595.37 1525.06 2594.47 1523.8 2594.02 1522.18 2594.02 1520.21 2594.02 1519.18 2594.2 1517.46 2594.56 1515.07 2594.92 1512.68 2595.1 1510.67 2595.1 1509.04 2595.1 1504.6 2594.36 1501.5 2592.9 1499.75 2591.43 1498 2589.4 1497.12 2586.8 1497.12L2586.4 1497.12ZM2535.46 1495.08 2536.16 1495.08 2536.16 1497.12 2535.75 1497.12C2533.16 1497.12 2531.13 1498 2529.66 1499.75 2528.19 1501.5 2527.46 1504.6 2527.46 1509.04 2527.46 1510.67 2527.63 1512.68 2527.99 1515.07 2528.35 1517.46 2528.53 1519.18 2528.53 1520.21 2528.53 1522.18 2528.08 1523.8 2527.19 1525.06 2526.29 1526.32 2525.23 1527.26 2523.99 1527.87L2523.99 1528.35C2525.23 1528.94 2526.29 1529.86 2527.19 1531.12 2528.08 1532.37 2528.53 1533.97 2528.53 1535.92 2528.53 1536.94 2528.35 1538.64 2527.99 1541.01 2527.63 1543.39 2527.46 1545.37 2527.46 1546.96 2527.46 1551.62 2528.19 1554.81 2529.66 1556.55 2531.13 1558.29 2533.16 1559.15 2535.75 1559.15L2536.16 1559.15 2536.16 1561.2 2535.46 1561.2C2531.25 1561.11 2528.1 1559.88 2526.02 1557.53 2523.93 1555.18 2522.89 1551.31 2522.89 1545.94 2522.89 1544.04 2523.1 1541.89 2523.52 1539.48 2523.94 1537.07 2524.15 1535.46 2524.15 1534.64 2524.15 1533.06 2523.73 1531.78 2522.88 1530.79 2522.03 1529.81 2520.74 1529.28 2519.02 1529.21L2519.02 1527.01C2520.74 1526.94 2522.03 1526.4 2522.88 1525.41 2523.73 1524.42 2524.15 1523.12 2524.15 1521.53 2524.15 1520.71 2523.94 1519.08 2523.52 1516.64 2523.1 1514.21 2522.89 1512.03 2522.89 1510.12 2522.89 1504.94 2523.93 1501.16 2526.02 1498.78 2528.1 1496.4 2531.25 1495.17 2535.46 1495.08Z" fill-rule="evenodd"/><path d="M2544.07 1518.17 2563.17 1518.17 2563.68 1519.52 2550.87 1534.23C2548.38 1537.08 2546.22 1539.5 2544.39 1541.48L2544.56 1541.67 2550.63 1541.67C2551.7 1541.67 2552.52 1541.61 2553.1 1541.5 2553.67 1541.38 2554.17 1541.16 2554.6 1540.84 2555.03 1540.52 2555.47 1540.03 2555.93 1539.38 2556.39 1538.72 2556.95 1537.7 2557.63 1536.3L2560.02 1536.3 2558.39 1543.85 2538.94 1543.85 2538.43 1542.53 2553.12 1525.61C2555.2 1523.23 2556.72 1521.54 2557.69 1520.54L2557.53 1520.35 2551.24 1520.35C2550.31 1520.35 2549.63 1520.41 2549.2 1520.54 2548.77 1520.66 2548.34 1520.88 2547.91 1521.19 2547.48 1521.51 2547.02 1521.97 2546.53 1522.59 2546.04 1523.21 2545.49 1524.09 2544.88 1525.24L2542.49 1525.24Z" fill-rule="evenodd"/><text fill="#000000" fill-opacity="0" font-family="Arial,Arial_MSFontService,sans-serif" font-size="25.6738" x="2538.43" y="1540.64">ğ‘§</text><path d="M2576.17 1503.96 2577.13 1503.96 2574.24 1516.96C2574.06 1517.73 2573.93 1518.34 2573.86 1518.8 2573.79 1519.26 2573.75 1519.67 2573.75 1520.03 2573.75 1520.53 2573.85 1520.88 2574.05 1521.11 2574.25 1521.33 2574.56 1521.44 2574.96 1521.44 2575.2 1521.44 2575.43 1521.39 2575.66 1521.3 2575.9 1521.21 2576.15 1521.07 2576.42 1520.87 2576.68 1520.68 2576.98 1520.42 2577.29 1520.12 2577.61 1519.81 2577.97 1519.44 2578.36 1519.02L2579.69 1520.3C2579.01 1520.99 2578.4 1521.58 2577.84 1522.05 2577.29 1522.53 2576.76 1522.92 2576.27 1523.21 2575.77 1523.51 2575.29 1523.73 2574.81 1523.86 2574.34 1523.99 2573.83 1524.05 2573.3 1524.05 2572.81 1524.05 2572.36 1523.96 2571.96 1523.78 2571.57 1523.6 2571.22 1523.35 2570.94 1523.03 2570.65 1522.71 2570.43 1522.33 2570.27 1521.89 2570.12 1521.44 2570.04 1520.96 2570.04 1520.42 2570.04 1519.99 2570.09 1519.46 2570.2 1518.82 2570.3 1518.18 2570.43 1517.49 2570.6 1516.74 2570.76 1515.99 2570.94 1515.21 2571.13 1514.39 2571.33 1513.57 2571.52 1512.75 2571.71 1511.94 2571.9 1511.14 2572.07 1510.36 2572.22 1509.61 2572.37 1508.86 2572.47 1508.18 2572.54 1507.57 2572.57 1507.47 2572.58 1507.36 2572.58 1507.27 2572.58 1507.17 2572.58 1507.08 2572.58 1507 2572.55 1506.5 2572.37 1506.12 2572.04 1505.89 2571.71 1505.66 2571.12 1505.53 2570.27 1505.5L2570.51 1504.17ZM2575.04 1496.09 2578.95 1496.09 2577.99 1500.28 2574.12 1500.28Z" fill-rule="evenodd"/><text fill="#000000" fill-opacity="0" font-family="Arial,Arial_MSFontService,sans-serif" font-size="27.9688" x="2570.04" y="1520.56">ğ‘–</text><path d="M2532.85 1025.1 2551.95 1025.1 2552.46 1026.44 2539.65 1041.16C2537.16 1044.01 2535 1046.42 2533.18 1048.41L2533.34 1048.6 2539.41 1048.6C2540.48 1048.6 2541.31 1048.54 2541.88 1048.42 2542.45 1048.31 2542.95 1048.09 2543.38 1047.77 2543.81 1047.44 2544.25 1046.95 2544.71 1046.3 2545.17 1045.65 2545.74 1044.62 2546.42 1043.23L2548.81 1043.23 2547.17 1050.77 2527.73 1050.77 2527.22 1049.46 2541.91 1032.54C2543.98 1030.16 2545.5 1028.46 2546.47 1027.46L2546.31 1027.27 2540.03 1027.27C2539.09 1027.27 2538.41 1027.34 2537.98 1027.46 2537.55 1027.59 2537.12 1027.81 2536.7 1028.12 2536.27 1028.43 2535.8 1028.9 2535.31 1029.52 2534.82 1030.13 2534.27 1031.02 2533.66 1032.16L2531.27 1032.16Z" fill-rule="evenodd"/><text fill="#000000" fill-opacity="0" font-family="Arial,Arial_MSFontService,sans-serif" font-size="25.6738" x="2527.22" y="1047.56">ğ‘§</text></g></svg>